<svg id="Icon_Set" enable-background="new 0 0 256 256" height="512" viewBox="0 0 256 256" width="512" xmlns="http://www.w3.org/2000/svg"><g fill="#f9d335"><path d="m213.614 58.5h-176.311c-2.761 0-5-2.239-5-5v-28.5c0-2.761 2.239-5 5-5h176.311c2.761 0 5 2.239 5 5v28.5c0 2.761-2.239 5-5 5z"/><path d="m234.939 52.413h-16.325v-26.326h16.325c5.523 0 10 4.477 10 10v6.325c0 5.524-4.477 10.001-10 10.001z"/><path d="m32.303 52.413h-16.325c-5.523 0-10-4.477-10-10v-6.325c0-5.523 4.477-10 10-10h16.325z"/><path d="m213.614 236h-176.311c-2.761 0-5-2.239-5-5v-28.5c0-2.761 2.239-5 5-5h176.311c2.761 0 5 2.239 5 5v28.5c0 2.761-2.239 5-5 5z"/><path d="m234.939 229.913h-16.325v-26.325h16.325c5.523 0 10 4.477 10 10v6.325c0 5.523-4.477 10-10 10z"/><path d="m32.303 229.913h-16.325c-5.523 0-10-4.477-10-10v-6.325c0-5.523 4.477-10 10-10h16.325z"/></g><path d="m57.238 20h139.175v216h-139.175z" fill="#ffe2e2"/><path d="m30.976 52.41h-15c-5.52 0-10-4.47-10-10v-6.32c0-5.53 4.48-10 10-10h15c-5.52 0-10 4.47-10 10v6.32c0 5.53 4.48 10 10 10z" fill="#f9e27d"/><path d="m30.976 229.91h-15c-5.52 0-10-4.47-10-10v-6.32c0-5.53 4.48-10 10-10h15c-5.52 0-10 4.47-10 10v6.32c0 5.53 4.48 10 10 10z" fill="#f9e27d"/><path d="m244.936 36.09v6.32c0 5.53-4.47 10-10 10h-15c5.53 0 10-4.47 10-10v-6.32c0-5.53-4.47-10-10-10h15c5.53 0 10 4.47 10 10z" fill="#f2c300"/><path d="m244.936 213.59v6.32c0 5.53-4.47 10-10 10h-15c5.53 0 10-4.47 10-10v-6.32c0-5.53-4.47-10-10-10h15c5.53 0 10 4.47 10 10z" fill="#f2c300"/><path d="m218.616 202.5v28.5c0 2.76-2.24 5-5 5h-15c2.76 0 5-2.24 5-5v-28.5c0-2.76-2.24-5-5-5h15c2.76 0 5 2.24 5 5z" fill="#f2c300"/><path d="m52.306 236h-15c-2.76 0-5-2.24-5-5v-28.5c0-2.76 2.24-5 5-5h15c-2.76 0-5 2.24-5 5v28.5c0 2.76 2.24 5 5 5z" fill="#f9e27d"/><path d="m218.616 25v28.5c0 2.76-2.24 5-5 5h-15c2.76 0 5-2.24 5-5v-28.5c0-2.76-2.24-5-5-5h15c2.76 0 5 2.24 5 5z" fill="#f2c300"/><path d="m52.306 58.5h-15c-2.76 0-5-2.24-5-5v-28.5c0-2.76 2.24-5 5-5h15c-2.76 0-5 2.24-5 5v28.5c0 2.76 2.24 5 5 5z" fill="#f9e27d"/><path d="m181.416 20h15v216h-15z" fill="#ffcfcf"/><path d="m57.236 20h15v216h-15z" fill="#ffefee"/><path d="m200.588 159.474c-10.708 10.708-21.449 20.129-31.448 27.798-.841.643-1.676 1.281-2.512 1.896l-.005.006-14.198.676 6.206 5.03c-.126.093-.258.181-.39.269-17.612 11.862-31.536 16.87-36.543 11.862-7.745-7.745 8.482-36.846 36.999-67.892l4.694 15.325 5.145-16.798 3.881-12.665.005-.006c12.22-11.934 24.395-22.13 35.356-29.892l3.76 7.124 5.662-10.73 2.061-3.908c13.924-8.262 24.609-11.241 28.864-6.986 6.855 6.855-5.057 30.42-27.644 57.261l-4.353.901-15.435 3.199 9.147 7.926c-2.964 3.195-6.047 6.399-9.252 9.604z" fill="#ffbb98"/><path d="m249.466 90.78c-5.36.65-12.68 3.73-21.21 8.79l-2.06 3.91-5.66 10.73-3.76-7.13c-10.96 7.77-23.13 17.96-35.35 29.9h-.01l-3.88 12.67-5.15 16.79-4.69-15.32c-21.02 22.88-35.35 44.7-38.34 57.69-3.39.41-6.01-.15-7.66-1.8-7.74-7.74 8.48-36.84 37-67.89l4.69 15.32 5.15-16.79 3.88-12.67h.01c12.22-11.94 24.39-22.13 35.35-29.9l3.76 7.13 5.66-10.73 2.06-3.91c13.93-8.26 24.61-11.24 28.87-6.99 2.04 2.04 2.42 5.56 1.34 10.2z" fill="#ffcaa6"/><path d="m234.936 199.59h-12.81c-1.21-3.54-4.57-6.09-8.51-6.09h-13.2v-28.23c4.251-4.166 8.283-8.29 12.35-12.68 1.54-1.644 1.416-4.245-.31-5.74l-3.03-2.63 11.87-2.46c.87-.18 1.67-.65 2.25-1.34 9.65-11.48 40.16-49.91 27.41-62.67-5.68-5.68-17.03-3.53-33.74 6.38-.63.38-1.15.92-1.49 1.57l-4.19 7.94c-1.554-2.966-4.361-3.038-6.07-1.82-1.66 1.18-3.35 2.41-5.05 3.69v-33.01h13.2c3.94 0 7.3-2.55 8.51-6.09h12.81c7.72 0 14-6.28 14-14v-6.32c0-7.72-6.28-14-14-14h-12.81c-1.21-3.54-4.57-6.09-8.51-6.09-6.132 0-169.3 0-176.31 0-3.95 0-7.31 2.55-8.51 6.09h-12.82c-7.72 0-14 6.28-14 14v6.32c0 7.72 6.28 14 14 14h12.82c1.2 3.54 4.56 6.09 8.51 6.09h15.93v131h-15.93c-3.95 0-7.31 2.55-8.51 6.09h-12.82c-7.72 0-14 6.28-14 14v6.32c0 7.72 6.28 14 14 14h12.82c1.2 3.54 4.56 6.09 8.51 6.09h176.31c3.94 0 7.3-2.55 8.51-6.09h12.81c7.72 0 14-6.28 14-14v-6.32c0-7.72-6.28-14-14-14zm6 20.32c0 3.31-2.69 6-6 6h-12.32v-18.32h12.32c3.31 0 6 2.69 6 6zm-204.63 11.09c0-10.683 0-17.818 0-28.5 0-.55.45-1 1-1h15.93v30.5h-15.93c-.55 0-1-.45-1-1zm24.93-207h131.18v77.75c-7.54 6.12-15.26 13.01-22.83 20.4-.46.46-.8 1.03-.99 1.66l-5.21 16.98-.87-2.84c-.901-2.938-4.666-3.817-6.77-1.54-16.95 18.46-33.85 41.07-38.62 57.09-1.197 4.06-2.019 8.969-.48 12.91l-13.92 13.92c-3.815 3.791 1.985 9.326 5.65 5.66l13.93-13.93c1.49.58 3.15.84 4.95.84 12.606 0 33.415-14.271 34.39-15.4 1.127-1.296 1.192-3.12.69-4.12l4.48-.21c.8-.04 1.57-.32 2.21-.8.85-.62 1.69-1.27 2.55-1.92 7.075-5.425 14.272-11.549 20.84-17.6v59.15h-131.18c0-11.106 0-199.059 0-208zm-24.93 29.5c0-10.692 0-17.809 0-28.5 0-.55.45-1 1-1h15.93v30.5h-15.93c-.55 0-1-.45-1-1zm178.31-28.5v28.5c0 .55-.45 1-1 1h-13.2v-30.5h13.2c.55 0 1 .45 1 1zm.46 79.07 7.19-13.63c15-8.73 21.62-8.44 23.03-7.03 1.14 1.14 1.67 5.9-3.55 16.55-4.69 9.59-12.99 21.71-23.44 34.25-.857.178-17.587 3.648-18.43 3.82-3.225.671-4.305 4.762-1.8 6.94 2.949 2.558 1.609 1.397 6 5.2-13.004 13.649-25.984 25.203-37.37 33.92-.5.39-1 .77-1.5 1.15l-12.97.61c-3.661.176-5.177 4.793-2.33 7.11.623.502.338.27 1.95 1.58-5.945 3.767-15.306 9.034-22.25 10.22 6.441-6.441 60.788-60.788 67.37-67.37 3.715-3.739-1.903-9.417-5.66-5.66l-24.22 24.22c.091-.2 8.776-28.61 8.84-28.82 9.488-9.21 19.693-18.121 30.46-26.1l1.6 3.04c1.52 2.865 5.599 2.834 7.08 0zm-91.14 95.05c2.324-14.815 22.415-40.072 33-52.07l2.63 8.57c.51 1.68 2.07 2.82 3.82 2.82 1.758 0 8.151-6.921-39.45 40.68zm76.48 2.38h13.2c.55 0 1 .45 1 1v1.09 26.32 1.09c0 .55-.45 1-1 1h-13.2zm40.52-165.41v6.32c0 3.31-2.69 6-6 6h-12.32v-18.32h12.32c3.31 0 6 2.69 6 6zm-230.96 6.32v-6.32c0-3.31 2.69-6 6-6h12.33v18.32h-12.33c-3.31 0-6-2.69-6-6zm0 177.5v-6.32c0-3.31 2.69-6 6-6h12.33v18.32h-12.33c-3.31 0-6-2.69-6-6z" fill="#5f266d"/><path d="m82.076 56.41h88.67c5.269 0 5.34-8 0-8h-88.67c-5.367 0-5.207 8 0 8z" fill="#5f266d"/><path d="m82.076 94.32h88.67c5.285 0 5.293-8 0-8h-88.67c-5.285 0-5.292 8 0 8z" fill="#5f266d"/><path d="m82.076 132.22h67.77c5.305 0 5.275-8 0-8h-67.77c-5.28 0-5.294 8 0 8z" fill="#5f266d"/><path d="m82.076 170.13h32.67c5.285 0 5.293-8 0-8h-32.67c-5.285 0-5.292 8 0 8z" fill="#5f266d"/><path d="m101.416 200.04h-19.34c-5.245 0-5.355 8 0 8h19.34c5.314 0 5.219-8 0-8z" fill="#5f266d"/></svg>