<svg xmlns="http://www.w3.org/2000/svg" width="51.755" height="50" viewBox="0 0 51.755 50"><defs><style>.a{fill:#ea9d2d;}.b{fill:#c38325;}.c{fill:#f7ba61;}.d{fill:#f55648;}.e{fill:#da922a;}.f{fill:#6cbae5;}.g{fill:#89b140;}.h{fill:#f27e55;}.i{fill:#d970a2;}.j{fill:#3bd6d0;}.k{fill:#aedee2;}.l{fill:#6fbbc6;}</style></defs><g transform="translate(0 -0.5)"><path class="a" d="M156.2,356.3h21.053v14.035H156.2Zm0,0" transform="translate(-140.414 -319.832)"/><path class="b" d="M177.257,278.288H156.2l3.509-8.772h14.035Zm0,0" transform="translate(-140.414 -241.823)"/><path class="c" d="M101.6,278.288h-6.14l3.509-8.772h6.14Zm0,0" transform="translate(-85.808 -241.823)"/><path class="c" d="M333.271,278.288h6.14l-3.509-8.772h-6.14Zm0,0" transform="translate(-296.429 -241.823)"/><path class="d" d="M239.568,362.437l-2.631-.877-2.632.877V356.3h5.263Zm0,0" transform="translate(-210.62 -319.832)"/><path class="b" d="M291.634,444.829h-4.386a.877.877,0,1,1,0-1.755h4.386a.877.877,0,0,1,0,1.755Zm0,0" transform="translate(-257.424 -397.838)"/><path class="e" d="M190.914,269.516h14.035v8.772H190.914Zm0,0" transform="translate(-171.616 -241.823)"/><path class="c" d="M407.959,109.022a4.386,4.386,0,1,1-4.386-4.386A4.386,4.386,0,0,1,407.959,109.022Zm0,0" transform="translate(-358.837 -93.61)"/><path class="f" d="M381.925,152.409a4.386,4.386,0,1,1-4.386-4.386A4.386,4.386,0,0,1,381.925,152.409Zm0,0" transform="translate(-335.434 -132.611)"/><path class="d" d="M433.991,152.409a4.386,4.386,0,1,1-4.386-4.386A4.386,4.386,0,0,1,433.991,152.409Zm0,0" transform="translate(-382.237 -132.611)"/><path class="g" d="M402.166,152.06a4.357,4.357,0,0,1,1.72-3.138,4.338,4.338,0,0,0-4.351-.546A4.378,4.378,0,0,0,402.166,152.06Zm0,0" transform="translate(-359.149 -132.613)"/><path class="h" d="M442.578,148.922a4.358,4.358,0,0,1,1.719,3.138,4.379,4.379,0,0,0,2.632-3.684A4.338,4.338,0,0,0,442.578,148.922Zm0,0" transform="translate(-397.841 -132.613)"/><path class="i" d="M428.728,188.3c0-.12-.026-.233-.035-.351a4.388,4.388,0,0,1-3.439,0c-.009.117-.035.231-.035.351a4.364,4.364,0,0,0,1.754,3.489A4.363,4.363,0,0,0,428.728,188.3Zm0,0" transform="translate(-382.237 -168.498)"/><path class="j" d="M427.286,156.9a4.357,4.357,0,0,0-1.72,3.138,4.388,4.388,0,0,0,3.439,0A4.358,4.358,0,0,0,427.286,156.9Zm0,0" transform="translate(-382.549 -140.592)"/><path class="c" d="M205.734,111.585l-6.14-4.962,6.14-4.962,6.14,4.962Zm0,0" transform="translate(-179.418 -90.935)"/><path class="k" d="M205.734,62.491l-6.14-4.962,6.14-4.963,6.14,4.963Zm0,0" transform="translate(-179.418 -46.803)"/><path class="i" d="M205.734,10.425l-6.14-4.963L205.734.5l6.14,4.962Zm0,0" transform="translate(-179.418)"/><path class="c" d="M26.128,91.509a4.386,4.386,0,1,0-6.994,3.509H19.11V99.4h5.263V95.018H24.35a4.369,4.369,0,0,0,1.778-3.509Zm0,0" transform="translate(-15.601 -77.851)"/><path class="a" d="M52.944,138.563a.877.877,0,0,1-.877-.877v-6.14a.877.877,0,1,1,1.755,0v6.14A.877.877,0,0,1,52.944,138.563Zm0,0" transform="translate(-46.803 -117.011)"/><path class="a" d="M45.145,116.821a1.754,1.754,0,1,1,1.754-1.754A1.754,1.754,0,0,1,45.145,116.821Zm0,0" transform="translate(-39.005 -101.409)"/><path class="l" d="M34.711,200.094h5.263v.877a2.632,2.632,0,0,1-5.263,0Zm0,0" transform="translate(-31.202 -179.419)"/><path class="k" d="M147.523,139.348h1.755V141.1h-1.755Zm0,0" transform="translate(-132.611 -124.813)"/><g transform="translate(0 4.886)"><path class="c" d="M52.066,43.891h1.754v1.754H52.066Zm0,0" transform="translate(-46.803 -43.891)"/><path class="c" d="M104.137,61.246h1.754V63h-1.754Zm0,0" transform="translate(-93.611 -59.492)"/><path class="c" d="M0,61.246H1.754V63H0Zm0,0" transform="translate(0 -59.492)"/></g><path class="k" d="M251.66,226.129h1.754v1.754H251.66Zm0,0" transform="translate(-226.222 -202.822)"/><path class="k" d="M364.477,78.6h1.754v1.754h-1.754Zm0,0" transform="translate(-327.635 -70.207)"/></g></svg>