<svg xmlns="http://www.w3.org/2000/svg" width="27.543" height="25" viewBox="0 0 27.543 25">
  <g id="rupee" transform="translate(0 -23.639)">
    <path id="Path_1084" data-name="Path 1084" d="M251.918,111.907a.418.418,0,0,1-.065-.005,3.339,3.339,0,0,1-1.427-.709,4.386,4.386,0,0,0-.745-.467c-.818-.364-1.7-.064-2.61.894a.416.416,0,0,1-.6-.574c1.472-1.543,2.743-1.439,3.549-1.08a5.071,5.071,0,0,1,.893.552,2.689,2.689,0,0,0,1.07.562.416.416,0,0,1-.064.826Z" transform="translate(-233.103 -81.471)" fill="#655e67"/>
    <path id="Path_1085" data-name="Path 1085" d="M254.343,148.676a.414.414,0,0,1-.308-.137,5.009,5.009,0,0,1-.978-2.142c-.054-.195-.1-.379-.161-.561a2.89,2.89,0,0,0-1.407-1.741,1.763,1.763,0,0,0-1.467-.033.416.416,0,0,1-.311-.771,2.6,2.6,0,0,1,2.134.053,3.691,3.691,0,0,1,1.845,2.245c.061.195.116.394.169.587a4.334,4.334,0,0,0,.793,1.805.416.416,0,0,1-.308.695Z" transform="translate(-236.031 -113.024)" fill="#655e67"/>
    <path id="Path_1086" data-name="Path 1086" d="M110.053,24.083a1.37,1.37,0,0,0-1.734-.23,1.148,1.148,0,0,1-1.208.041,1.725,1.725,0,0,0-1.807,0,1.148,1.148,0,0,1-1.208-.041,1.37,1.37,0,0,0-1.734.23c-.81.713-1.113,1.891-.132,3.56a3.647,3.647,0,0,0,2.418,1.991,3.3,3.3,0,0,0,3.119,0,3.647,3.647,0,0,0,2.418-1.991C111.167,25.974,110.863,24.8,110.053,24.083Z" transform="translate(-96.15)" fill="#c77e67"/>
    <path id="Path_1087" data-name="Path 1087" d="M13.143,166.137H6.975S0,174.48,0,177.864a5.62,5.62,0,0,0,5.158,5.607h9.8a5.62,5.62,0,0,0,5.158-5.607C20.118,174.48,13.143,166.137,13.143,166.137Z" transform="translate(0 -134.832)" fill="#c77e67"/>
    <g id="Group_4060" data-name="Group 4060" transform="translate(5.944 23.639)">
      <path id="Path_1088" data-name="Path 1088" d="M179.518,24.085a1.37,1.37,0,0,0-1.734-.23c-.04.024-.08.046-.121.066a2.056,2.056,0,0,1,.184.164c.712.713.979,1.891.117,3.56-.617,1.193-1.445,1.928-2.127,1.991a1.253,1.253,0,0,1-.807.35,3.1,3.1,0,0,0,2.2-.35,3.647,3.647,0,0,0,2.418-1.991C180.631,25.976,180.328,24.8,179.518,24.085Z" transform="translate(-171.558 -23.641)" fill="#ac583e"/>
      <path id="Path_1089" data-name="Path 1089" d="M216.532,166.137h-1.579s6.137,8.343,6.137,11.727c0,3.786-2.958,5.607-4.539,5.607h1.8a5.62,5.62,0,0,0,5.158-5.607c0-3.384-6.975-11.727-6.975-11.727Z" transform="translate(-209.333 -158.471)" fill="#ac583e"/>
      <path id="Path_1090" data-name="Path 1090" d="M118.717,167.419c-.621-.791-1.031-1.282-1.031-1.282h-6.168s-.41.491-1.031,1.282Z" transform="translate(-110.486 -158.471)" fill="#ac583e"/>
    </g>
    <path id="Path_1091" data-name="Path 1091" d="M154,80.107a.935.935,0,0,1-.821-.456c-.235-.165-.578-.624-.87-1.992a9.5,9.5,0,0,1-.183-1.22.416.416,0,0,1,.829-.066,8.653,8.653,0,0,0,.168,1.112,3.793,3.793,0,0,0,.52,1.468.416.416,0,0,1,.253.274c.014.048.1.048.1.048s.09,0,.1-.048a.416.416,0,0,1,.253-.274,3.792,3.792,0,0,0,.52-1.468,8.816,8.816,0,0,0,.169-1.113.416.416,0,1,1,.828.068,9.617,9.617,0,0,1-.184,1.219c-.292,1.368-.634,1.827-.87,1.992A.935.935,0,0,1,154,80.107Z" transform="translate(-143.944 -49.536)" fill="#7b3f2c"/>
    <path id="Path_1092" data-name="Path 1092" d="M144.82,255.458H144.1a2.034,2.034,0,0,0-.372-.862h1.091a.416.416,0,0,0,0-.831h-4.2a.416.416,0,0,0,0,.831h1.459a1.228,1.228,0,0,1,1.171.862h-2.63a.416.416,0,0,0,0,.831h2.613a1.28,1.28,0,0,1-1.206.862h-.863a.678.678,0,0,0-.531,1.1l2.538,3.194a.416.416,0,1,0,.651-.517l-2.341-2.947h.546a2.114,2.114,0,0,0,2.066-1.693h.728a.416.416,0,0,0,0-.831Z" transform="translate(-132.66 -217.746)" fill="#f0e9e6"/>
    <path id="Path_1093" data-name="Path 1093" d="M101.565,126.794a1.087,1.087,0,0,0,1.087,1.087h7.015a1.087,1.087,0,0,0,0-2.175h-7.015A1.087,1.087,0,0,0,101.565,126.794Z" transform="translate(-96.101 -96.577)" fill="#655e67"/>
    <path id="Path_1094" data-name="Path 1094" d="M225.253,125.707h-1.531a1.087,1.087,0,0,1,0,2.175h1.531a1.087,1.087,0,0,0,0-2.175Z" transform="translate(-211.687 -96.577)" fill="#544f56"/>
    <g id="Group_4061" data-name="Group 4061" transform="translate(13.105 45.952)">
      <path id="Path_1095" data-name="Path 1095" d="M252.2,438.407h-7.257a1.344,1.344,0,1,0,0,2.687H252.2a1.344,1.344,0,1,0,0-2.687Z" transform="translate(-243.603 -438.407)" fill="#f7e365"/>
      <path id="Path_1096" data-name="Path 1096" d="M376.377,438.407h-1.541a1.344,1.344,0,0,1,0,2.687h1.541a1.344,1.344,0,1,0,0-2.687Z" transform="translate(-367.776 -438.407)" fill="#ecc52e"/>
    </g>
    <g id="Group_4063" data-name="Group 4063" transform="translate(13.105 43.264)">
      <path id="Path_1097" data-name="Path 1097" d="M252.2,388.452h-7.257a1.344,1.344,0,1,0,0,2.687H252.2a1.344,1.344,0,1,0,0-2.687Z" transform="translate(-243.603 -388.452)" fill="#f7e365"/>
      <g id="Group_4062" data-name="Group 4062" transform="translate(0 0)">
        <path id="Path_1098" data-name="Path 1098" d="M252.2,404.7h-7.257a1.344,1.344,0,0,1-1.241-.829,1.344,1.344,0,0,0,1.241,1.858H252.2a1.344,1.344,0,0,0,1.241-1.858A1.344,1.344,0,0,1,252.2,404.7Z" transform="translate(-243.603 -403.039)" fill="#ecc52e"/>
        <path id="Path_1099" data-name="Path 1099" d="M376.377,388.452h-1.541a1.344,1.344,0,0,1,0,2.687h1.541a1.344,1.344,0,1,0,0-2.687Z" transform="translate(-367.776 -388.452)" fill="#ecc52e"/>
      </g>
    </g>
    <g id="Group_4064" data-name="Group 4064" transform="translate(21.227 39.666)">
      <path id="Path_1100" data-name="Path 1100" d="M400.721,328.524l-3.629-6.285a1.344,1.344,0,1,0-2.327,1.344l3.629,6.285a1.344,1.344,0,0,0,2.327-1.344Z" transform="translate(-394.585 -321.567)" fill="#f7e365"/>
      <path id="Path_1101" data-name="Path 1101" d="M454.161,427.415l-.771-1.335a1.344,1.344,0,1,1-2.327,1.344l.771,1.335a1.344,1.344,0,0,0,2.327-1.344Z" transform="translate(-448.025 -420.458)" fill="#ecc52e"/>
    </g>
  </g>
</svg>
