<svg xmlns="http://www.w3.org/2000/svg" xmlns:xlink="http://www.w3.org/1999/xlink" width="55" height="50" viewBox="0 0 55 50"><defs><style>.a{fill:#fff;}.b{clip-path:url(#a);}.c{fill:#ffc73b;}.d{fill:#efb025;}.e{fill:#ff4440;}.f{fill:#ea2f2f;}</style><clipPath id="a"><rect class="a" width="55" height="50" transform="translate(242 408)"/></clipPath></defs><g class="b" transform="translate(-242 -408)"><g transform="translate(244.483 407.951)"><path class="c" d="M4.3,18.54H45.736V49.277H4.3Zm0,0"/><path class="d" d="M4.3,18.54H45.736v6.023H4.3Zm0,0"/><path class="c" d="M.772,10.819h48.49V21.166H.772Zm0,0"/><path class="e" d="M25.017,14.25q-.473.55-.926,1.114A42.089,42.089,0,0,0,15.271,35.6a42.306,42.306,0,0,1-3.421-5.339,44.478,44.478,0,0,0-5.3,4.062A50.883,50.883,0,0,1,17.619,9.36c.237-.289.478-.575.722-.859l3.109,2.678,3.178,2.738c.13.11.258.222.388.334Zm0,0"/><path class="e" d="M43.482,34.326a44.479,44.479,0,0,0-5.3-4.062A42.306,42.306,0,0,1,34.764,35.6a42.065,42.065,0,0,0-5.739-15.855,41.947,41.947,0,0,0-3.081-4.384q-.454-.564-.926-1.114l.388-.334,3.179-2.738L31.693,8.5q.366.425.722.858A50.808,50.808,0,0,1,37.8,17.332a50.914,50.914,0,0,1,5.679,16.995Zm0,0"/><path class="f" d="M37.8,17.332l-8.778,2.416a41.947,41.947,0,0,0-3.081-4.384L25.4,13.917l-.388-1.044,3.567-1.694,3.831-1.82A50.808,50.808,0,0,1,37.8,17.332Zm0,0"/><path class="f" d="M25.017,12.873l-.388,1.044-.537,1.448a41.777,41.777,0,0,0-3.081,4.384l-8.777-2.416A50.766,50.766,0,0,1,17.619,9.36l3.831,1.819Zm0,0"/><path class="e" d="M39.026,1.154,25.017,7.808l2.691,7.237L42.66,10.929a3.457,3.457,0,0,0,2.323-4.538L43.75,3.073a3.457,3.457,0,0,0-4.723-1.918Zm0,0"/><path class="e" d="M11.008,1.154,25.017,7.808l-2.691,7.237L7.374,10.929A3.457,3.457,0,0,1,5.051,6.391L6.285,3.073a3.457,3.457,0,0,1,4.724-1.918Zm0,0"/><path class="e" d="M27.214,5.32H22.821A2.177,2.177,0,0,0,20.643,7.5V13.88a2.178,2.178,0,0,0,2.177,2.177h4.393a2.177,2.177,0,0,0,2.177-2.177V7.5A2.177,2.177,0,0,0,27.214,5.32Zm0,0"/><path class="e" d="M21.157,21.166h7.721V49.277H21.157Zm0,0"/><path class="f" d="M21.157,21.166h7.721v3.4H21.157Zm0,0"/><path d="M49.262,10.047H45.188a4.212,4.212,0,0,0,.52-3.925L44.473,2.8A4.229,4.229,0,0,0,38.695.457L28.925,5.1a2.933,2.933,0,0,0-1.711-.549H22.821a2.935,2.935,0,0,0-1.711.549L11.34.457A4.23,4.23,0,0,0,5.561,2.8L4.327,6.122a4.24,4.24,0,0,0,.2,3.4,4.165,4.165,0,0,0,.32.523H.772A.772.772,0,0,0,0,10.819v5.559a.772.772,0,1,0,1.544,0V11.591H6.908c.086.03.173.058.261.082l6.483,1.785a51.584,51.584,0,0,0-3.8,6.936H1.545v-.927a.772.772,0,0,0-1.544,0v1.7a.772.772,0,0,0,.772.772H3.526V49.277a.772.772,0,0,0,.772.772H45.736a.772.772,0,0,0,.772-.772V44.793a.772.772,0,0,0-1.544,0V48.5H29.65V22.413A41.352,41.352,0,0,1,34,35.715a.772.772,0,0,0,.573.636.761.761,0,0,0,.191.024.772.772,0,0,0,.616-.307,43.056,43.056,0,0,0,3.074-4.7,44.011,44.011,0,0,1,4.513,3.53.772.772,0,0,0,1.278-.688,51.793,51.793,0,0,0-3.4-12.276h4.113V41.7a.772.772,0,1,0,1.544,0V21.938h2.754a.772.772,0,0,0,.772-.772V10.819a.771.771,0,0,0-.772-.772Zm-9.905-8.2a2.685,2.685,0,0,1,3.669,1.49L44.26,6.659a2.685,2.685,0,0,1-1.8,3.525L30.163,13.568V9.857C32.926,8.165,39.814,4.676,41.529,7.1a.772.772,0,1,0,1.26-.892c-1.323-1.868-4.111-1.959-8.288-.27a36.781,36.781,0,0,0-4.338,2.133V7.5a2.936,2.936,0,0,0-.24-1.165ZM22.821,6.092h4.393A1.407,1.407,0,0,1,28.619,7.5V13.88a1.407,1.407,0,0,1-1.405,1.405H22.821a1.407,1.407,0,0,1-1.405-1.405V7.5a1.407,1.407,0,0,1,1.405-1.405Zm-1.3,14.3A41.185,41.185,0,0,1,23.93,16.83H26.1a41.014,41.014,0,0,1,2.408,3.563ZM5.9,8.82a2.658,2.658,0,0,1-.127-2.16L7.009,3.341a2.684,2.684,0,0,1,3.668-1.49l9.434,4.481a2.931,2.931,0,0,0-.24,1.165v.614a36.909,36.909,0,0,0-4.414-2.178c-4.176-1.689-6.965-1.6-8.288.27a.772.772,0,1,0,1.26.892C10.16,4.653,17.161,8.231,19.871,9.9v3.664L7.579,10.185A2.656,2.656,0,0,1,5.9,8.82Zm14.316,6.446a2.962,2.962,0,0,0,1.864,1.47A42.962,42.962,0,0,0,14.818,33.65,42.256,42.256,0,0,1,12.529,29.9a.772.772,0,0,0-1.1-.279,44.736,44.736,0,0,0-3.762,2.747,50.452,50.452,0,0,1,7.551-18.476ZM5.071,21.938H9.184a51.806,51.806,0,0,0-3.4,12.276.772.772,0,0,0,1.278.688,43.973,43.973,0,0,1,4.514-3.53,43.039,43.039,0,0,0,3.074,4.7.772.772,0,0,0,.616.308.762.762,0,0,0,.191-.024.771.771,0,0,0,.573-.636,41.372,41.372,0,0,1,4.349-13.3V48.5H5.071ZM21.929,48.5V21.938h6.177V48.5ZM38.606,29.618a.772.772,0,0,0-1.1.279,42.2,42.2,0,0,1-2.289,3.752,42.951,42.951,0,0,0-7.264-16.914,2.961,2.961,0,0,0,1.865-1.471l5-1.377a50.478,50.478,0,0,1,7.55,18.476,44.8,44.8,0,0,0-3.762-2.747Zm9.883-9.225H40.182a51.625,51.625,0,0,0-3.8-6.936l6.482-1.785c.088-.024.175-.052.261-.082H48.49Zm0,0"/></g></g></svg>