<svg xmlns="http://www.w3.org/2000/svg" xmlns:xlink="http://www.w3.org/1999/xlink" width="55" height="50" viewBox="0 0 55 50"><defs><style>.a{fill:#fff;}.b{clip-path:url(#a);}.c{fill:#ff5f82;}.d{fill:#ffdf57;}</style><clipPath id="a"><rect class="a" width="55" height="50" transform="translate(78 552)"/></clipPath></defs><g class="b" transform="translate(-78 -552)"><g transform="translate(80.5 552)"><path class="c" d="M47.07,8.789H12.7a1.952,1.952,0,0,0-1.953,1.953v6.445H12.7V30.859H.977V49.023h27.93V38.672H45.117a1.952,1.952,0,0,0,1.953-1.953V17.188h1.953V10.742A1.952,1.952,0,0,0,47.07,8.789Zm0,0"/><path class="d" d="M29.883,2.93a3.906,3.906,0,0,0-3.906,3.906V26.953l3.906-3.906,3.906,3.906V6.836A3.906,3.906,0,0,0,29.883,2.93Zm0,0"/><path class="d" d="M16.6,36.719V30.859H12.7v5.859H.977v3.906H12.7v8.4H16.6v-8.4h12.3V36.719Zm0,0"/><path d="M44.141,21.094a.977.977,0,1,1-.977-.977A.976.976,0,0,1,44.141,21.094Zm0,0"/><path d="M47.07,7.813H43.221a5.859,5.859,0,0,0-10.54-4.98,4.893,4.893,0,0,0-5.6,0,5.86,5.86,0,0,0-10.54,4.98H12.7a2.933,2.933,0,0,0-2.93,2.93v6.445a.976.976,0,0,0,.977.977h.977V29.883H.977A.976.976,0,0,0,0,30.859V49.023A.976.976,0,0,0,.977,50h27.93a.976.976,0,0,0,.977-.977V39.648H45.117a2.933,2.933,0,0,0,2.93-2.93V18.164h.977A.976.976,0,0,0,50,17.188V10.742a2.933,2.933,0,0,0-2.93-2.93ZM37.7,1.953A3.911,3.911,0,0,1,41.6,5.859a3.871,3.871,0,0,1-.523,1.953H34.766V6.836a4.839,4.839,0,0,0-.676-2.48,3.929,3.929,0,0,1,3.606-2.4ZM26.953,9.766h5.859V24.6l-2.239-2.239a.976.976,0,0,0-1.381,0L26.953,24.6Zm2.93-5.859a2.926,2.926,0,0,1,2.93,2.93v.977H26.953V6.836A2.926,2.926,0,0,1,29.883,3.906ZM18.164,5.859a3.907,3.907,0,0,1,7.512-1.5A4.839,4.839,0,0,0,25,6.836v.977H18.687a3.872,3.872,0,0,1-.523-1.953Zm-6.445,4.883a.977.977,0,0,1,.977-.977H25v6.445H11.719ZM27.93,31.836v3.906H17.578V31.836ZM17.578,37.7H27.93v1.953H17.578ZM15.625,48.047H13.672V31.836h1.953ZM1.953,37.7h9.766v1.953H1.953Zm9.766-5.859v3.906H1.953V31.836ZM1.953,41.6h9.766v6.445H1.953Zm15.625,6.445V41.6H27.93v6.445ZM46.094,36.719a.977.977,0,0,1-.977.977H29.883V30.859a.976.976,0,0,0-.977-.977H13.672V18.164H25v8.789a.976.976,0,0,0,1.667.69l3.216-3.216L33.1,27.644a.976.976,0,0,0,1.667-.69V18.164H46.094Zm1.953-20.508H34.766V9.766h12.3a.977.977,0,0,1,.977.977Zm0,0"/><path d="M43.164,35.742a.976.976,0,0,0,.977-.977V25a.977.977,0,0,0-1.953,0v9.766A.976.976,0,0,0,43.164,35.742Zm0,0"/></g></g></svg>