<svg xmlns="http://www.w3.org/2000/svg" xmlns:xlink="http://www.w3.org/1999/xlink" width="55" height="50" viewBox="0 0 55 50"><defs><style>.a{fill:#fff;}.b{clip-path:url(#a);}.c{fill:#1d8348;}.d{fill:#2ecc71;}.e{fill:#36f085;}.f{fill:#ffd800;}.g{fill:#f39c12;}.h{fill:#f1c40f;}</style><clipPath id="a"><rect class="a" width="55" height="50" transform="translate(78 408)"/></clipPath></defs><g class="b" transform="translate(-78 -408)"><g transform="translate(79.285 408)"><path class="c" d="M32.151,0,11.91,11.73l-.038-.022V32.9L32.151,44.613,52.43,32.9v-21.2Zm0,1.7L49.5,11.711l-.032.018-17.314-10L14.806,11.749Zm0,0"/><path class="c" d="M32.151,44.613,11.872,32.9v-21.2L32.151,23.416Zm0,0"/><path class="d" d="M32.151,44.613,52.43,32.9v-21.2L32.151,23.416Zm0,0"/><path class="d" d="M32.151,21.763V1.733L14.806,11.749Zm0,0"/><path class="e" d="M32.151,0,11.872,11.752,32.151,23.46,52.43,11.708ZM14.806,11.749,32.151,1.7,49.5,11.711,32.151,21.763Zm0,0"/><path class="d" d="M32.675,20.509,11.554,8.3,6.9,10.985,1.689,37.79,22.818,49.959,22.81,50l.04-.023,4.618-2.663Zm0,0"/><path class="c" d="M28.058,23.171,22.85,49.977,1.689,37.79,6.9,10.985Zm0,0"/><path class="e" d="M32.675,20.509,11.554,8.3,6.9,10.985l21.121,12.21Zm0,0"/><path class="f" d="M45.948,36.667v-21.2l-4.406,2.52v21.2Zm0,0"/><path class="f" d="M26.271,33.033c-.815-1.065-2.679-1.053-4.437-.918l4.99-3.768-2.93-1.94L23.7,22.4l-8.6,6.5L6.508,12.464l-.2,3.777-2.93-1.447L10.126,27.7c-.533-.456-1.2-1.064-1.966-1.833-1.893-1.912-3.639-4.477-5.779-3.589S-.145,25,.041,27.523s-.593,3.635.913,5.393,5.958.138,7.684.37c.46.062.87.1,1.239.122a3.666,3.666,0,0,0,5.1,2.545,4.48,4.48,0,0,0,.626.7,25.752,25.752,0,0,1,3.078,3.02c1.784,2.014,3.386,4.672,5.571,3.9s2.673-2.571,2.627-5.1.794-3.6-.612-5.435Zm0,0"/><path class="g" d="M16.271,32.825a20.439,20.439,0,0,1,3.81,1.789c1.724,1.088,4.939,1.72,5.611.6s-1.252-2.678-2.508-2.575a25.044,25.044,0,0,1-4.815.145,5.708,5.708,0,0,0-2.1.04Zm0,0"/><path class="g" d="M10.14,29.123s-7.374-2.736-8.121-3.835.952-2.161,2.444-1.15S10.14,29.123,10.14,29.123Zm0,0"/><path class="h" d="M17.125,32.619a3.667,3.667,0,1,1-3.667-3.667A3.666,3.666,0,0,1,17.125,32.619Zm0,0"/></g></g></svg>