<svg xmlns="http://www.w3.org/2000/svg" xmlns:xlink="http://www.w3.org/1999/xlink" width="55" height="50" viewBox="0 0 55 50"><defs><style>.a{fill:#fff;}.b{clip-path:url(#a);}.c{fill:#db5449;}.d{fill:#c54b42;}.e{fill:#d05045;}.f{fill:#bb483e;}.g{fill:#eb6258;}.h{fill:#efefef;}.i{fill:#e2574c;}.j{fill:#dcdcdc;}.k{fill:#d1d1d1;}</style><clipPath id="a"><rect class="a" width="55" height="50" transform="translate(242 552)"/></clipPath></defs><g class="b" transform="translate(-242 -552)"><g transform="translate(244.5 552)"><path class="c" d="M1.563,13.281,25,25,48.438,13.281v25L25,50,1.563,38.281Z"/><path class="d" d="M1.563,15.625v7.3L24.922,34.375,48.438,22.891V15.625L25,27.11Z"/><path class="e" d="M25,50V25L3.125,14.063H1.563V38.282Z"/><path class="f" d="M1.563,15.625v7.3L24.922,34.375,25,34.336V27.109Z"/><path class="g" d="M0,12.461,25,0,50,12.461V14.1L25,26.563,0,14.141Z"/><path class="h" d="M39.336,3.945a5.148,5.148,0,0,0-4.648-2.383c-4.727,0-8.047,4.414-9.688,7.227C23.359,5.977,20,1.6,15.312,1.6c-3.008,0-5.156,1.836-5.156,4.336,0,4.453,4.883,7.344,14.688,7.344s15-3.711,15-7.3A4.125,4.125,0,0,0,39.336,3.945ZM16.328,8.75a2.848,2.848,0,0,1-1.484-2.109c0-.664.625-1.172,1.523-1.172,2.109,0,3.789,2.773,4.727,4.688A10.086,10.086,0,0,1,16.328,8.75Zm17.344,0a10.084,10.084,0,0,1-4.766,1.406c.9-1.914,2.578-4.688,4.727-4.688.9,0,1.523.508,1.523,1.172A2.848,2.848,0,0,1,33.672,8.75Z"/><path class="i" d="M0,12.5,25,24.727,50,12.5v8.086L24.922,32.813,0,20.586Z"/><path class="h" d="M34.375,21.211v-.9L25,15.235l-9.375,5.078v.9l-6.25-2.734v-1.25L24.688,9.141,25,9.3l.313-.156,15.312,8.047v1.25Z"/><path class="j" d="M34.375,20.313V45.274l6.25-3.125V17.188Z"/><path class="k" d="M9.375,42.188l6.25,3.125V20.352l-6.25-3.164S9.375,42.188,9.375,42.188Z"/></g></g></svg>