<svg xmlns="http://www.w3.org/2000/svg" xmlns:xlink="http://www.w3.org/1999/xlink" width="55" height="50" viewBox="0 0 55 50"><defs><style>.a{fill:#fff;}.b{clip-path:url(#a);}.c{fill:#ff5f7b;}.d{fill:#ffb8a7;}.e{fill:#86d3d6;}</style><clipPath id="a"><rect class="a" width="55" height="50" transform="translate(78 244)"/></clipPath></defs><g class="b" transform="translate(-78 -244)"><g transform="translate(80.476 243.977)"><path class="c" d="M29.538,13.748a.452.452,0,0,0,.5,0c4.1-2.737,2.9-5.146,1.761-5.511a1.894,1.894,0,0,0-.577-.1,1.451,1.451,0,0,0-1.129.533.448.448,0,0,1-.34.156.424.424,0,0,1-.314-.137,1.515,1.515,0,0,0-1.134-.545,1.739,1.739,0,0,0-.531.088C26.636,8.6,25.442,11.011,29.538,13.748Z"/><path d="M28.035,16a3.159,3.159,0,0,0,3.51,0,10.421,10.421,0,0,0,3.166-3.1,5.472,5.472,0,0,0,.84-3.633A4.394,4.394,0,0,0,32.627,5.66a4.606,4.606,0,0,0-1.4-.225,4.156,4.156,0,0,0-1.482.269,4.064,4.064,0,0,0-1.435-.261,4.453,4.453,0,0,0-1.355.217,4.394,4.394,0,0,0-2.925,3.608,5.472,5.472,0,0,0,.84,3.633A10.417,10.417,0,0,0,28.035,16Zm-.257-7.761a1.74,1.74,0,0,1,.531-.088,1.515,1.515,0,0,1,1.134.545.424.424,0,0,0,.314.137.448.448,0,0,0,.34-.156,1.451,1.451,0,0,1,1.129-.533,1.9,1.9,0,0,1,.577.1c1.141.365,2.335,2.774-1.761,5.511a.452.452,0,0,1-.5,0C25.442,11.011,26.636,8.6,27.777,8.237Z"/><path class="d" d="M41.654,7.468a.505.505,0,0,0,.567,0c3.414-2.317,2.4-4.348,1.434-4.657a1.613,1.613,0,0,0-.492-.082,1.224,1.224,0,0,0-.891.377.5.5,0,0,1-.359.152.516.516,0,0,1-.357-.145,1.253,1.253,0,0,0-.881-.377,1.488,1.488,0,0,0-.453.075C39.252,3.121,38.24,5.151,41.654,7.468Z"/><path d="M40.134,9.707a3.211,3.211,0,0,0,3.606,0c3.473-2.357,3.686-4.826,3.5-6.088A4.148,4.148,0,0,0,44.48.234,4.323,4.323,0,0,0,43.163.023a3.954,3.954,0,0,0-1.258.2,3.892,3.892,0,0,0-1.232-.2,4.19,4.19,0,0,0-1.277.2A4.149,4.149,0,0,0,36.63,3.619C36.448,4.881,36.661,7.35,40.134,9.707Zm.086-6.9a1.482,1.482,0,0,1,.453-.075,1.252,1.252,0,0,1,.881.377.517.517,0,0,0,.357.145.5.5,0,0,0,.359-.152,1.225,1.225,0,0,1,.891-.377,1.613,1.613,0,0,1,.492.082c.967.31,1.979,2.34-1.434,4.657a.505.505,0,0,1-.567,0C38.24,5.151,39.252,3.121,40.22,2.811Z"/><path class="d" d="M43.507,24.854c2.09-2.875.721-5.067-.6-5.491a2.911,2.911,0,0,0-.89-.146,2.221,2.221,0,0,0-1.646.717.847.847,0,0,1-.616.266.861.861,0,0,1-.606-.251,2.279,2.279,0,0,0-1.632-.718,2.669,2.669,0,0,0-.819.132c-1.324.424-2.694,2.616-.6,5.491h7.414Z"/><path class="a" d="M27.891,27.56H25.547l-6.113,8.984V47.179h8.457Z"/><rect class="a" width="8.456" height="19.619" transform="translate(38.885 27.56)"/><path d="M48.75,24.854H46.635a6.575,6.575,0,0,0,.6-3.712,5.3,5.3,0,0,0-3.5-4.354,5.632,5.632,0,0,0-1.714-.276,4.918,4.918,0,0,0-2.274.552,4.813,4.813,0,0,0-2.226-.54,5.386,5.386,0,0,0-1.643.264,5.3,5.3,0,0,0-3.5,4.352,6.574,6.574,0,0,0,.6,3.713H27.373L29.434,21.8a1.35,1.35,0,0,0-.365-1.875L21.918,15.1a1.353,1.353,0,0,0-1.878.365l-2.487,3.687a4.77,4.77,0,0,0-6.453,1.4A9.355,9.355,0,0,0,9.81,23.607a9.306,9.306,0,0,0-2.362-2.4A4.778,4.778,0,0,0,2.1,29.126a9.4,9.4,0,0,0,3.114,1.3A9.252,9.252,0,0,0,2.87,32.754a4.777,4.777,0,0,0,1.116,6.511l-2.58,3.825a1.353,1.353,0,0,0,.365,1.878l7.15,4.824a1.347,1.347,0,0,0,.756.232,1.3,1.3,0,0,0,1.095-.6l5.957-8.872V48.54a1.4,1.4,0,0,0,1.409,1.345H48.75a1.3,1.3,0,0,0,1.3-1.345V26.215A1.313,1.313,0,0,0,48.75,24.854ZM47.341,47.179H38.884V27.56h8.456ZM19.434,36.544l6.113-8.984h2.344V47.179H19.434V36.544ZM4.406,43.481l5.2-7.711,4.907,3.311-5.2,7.711Zm.391-7.66a2.058,2.058,0,0,1,.316-1.554A9.531,9.531,0,0,1,9.4,31.237l-1.28,1.9h0L5.5,37.017A2.056,2.056,0,0,1,4.8,35.822ZM3.059,24.007a2.071,2.071,0,0,1,2.876-.559A9.957,9.957,0,0,1,9.106,28.1q-.2.006-.426.006a9.417,9.417,0,0,1-5.062-1.219A2.075,2.075,0,0,1,3.059,24.007Zm12-2.85a2.055,2.055,0,0,1,.974.246l-3.916,5.8a9.579,9.579,0,0,1,1.222-5.137A2.071,2.071,0,0,1,15.063,21.157Zm11.37.258-5.108,7.571-4.907-3.311L21.526,18.1Zm-11.529,6.5,4.907,3.311-3.783,5.608-4.907-3.311ZM36.7,19.363a2.675,2.675,0,0,1,.819-.134,2.28,2.28,0,0,1,1.632.72.862.862,0,0,0,.606.252.847.847,0,0,0,.616-.265,2.218,2.218,0,0,1,1.646-.716,2.909,2.909,0,0,1,.89.144c1.324.424,2.693,2.616.6,5.491H36.093C34,21.979,35.371,19.787,36.7,19.363Zm-6.1,8.2h5.581V47.179H30.6Z"/><rect class="e" width="5.581" height="19.619" transform="translate(30.597 27.56)"/><path class="e" d="M9.106,28.1a9.954,9.954,0,0,0-3.171-4.648,2.072,2.072,0,1,0-2.317,3.435A9.416,9.416,0,0,0,8.68,28.1Q8.9,28.1,9.106,28.1Z"/><path class="e" d="M8.122,33.135l1.28-1.9a9.531,9.531,0,0,0-4.288,3.03A2.072,2.072,0,0,0,5.5,37.017l2.619-3.882Z"/><path class="e" d="M16.037,21.4a2.068,2.068,0,0,0-2.694.667,9.583,9.583,0,0,0-1.222,5.137Z"/><rect class="a" width="9.303" height="5.92" transform="translate(14.516 39.081) rotate(124.006)"/><rect class="a" width="5.92" height="9.133" transform="translate(21.526 18.105) rotate(34.006)"/><rect class="e" width="6.765" height="5.92" transform="translate(11.122 33.525) rotate(-55.994)"/></g></g></svg>