<svg xmlns="http://www.w3.org/2000/svg" width="20" height="17.794" viewBox="0 0 20 17.794">
  <path id="heart_1_" data-name="heart (1)" d="M10,17.794a1.173,1.173,0,0,1-.773-.291c-.808-.706-1.587-1.37-2.274-1.956l0,0a42.294,42.294,0,0,1-4.966-4.661A7.444,7.444,0,0,1,0,6.011,6.251,6.251,0,0,1,1.587,1.741,5.378,5.378,0,0,1,5.587,0,5.031,5.031,0,0,1,8.73,1.085,6.429,6.429,0,0,1,10,2.411a6.43,6.43,0,0,1,1.271-1.327A5.031,5.031,0,0,1,14.413,0a5.378,5.378,0,0,1,4,1.741A6.251,6.251,0,0,1,20,6.011a7.443,7.443,0,0,1-1.983,4.873,42.29,42.29,0,0,1-4.965,4.661c-.688.587-1.469,1.252-2.278,1.96a1.174,1.174,0,0,1-.773.29ZM5.587,1.172A4.219,4.219,0,0,0,2.448,2.535,5.085,5.085,0,0,0,1.171,6.011a6.263,6.263,0,0,0,1.714,4.125,41.621,41.621,0,0,0,4.823,4.517l0,0c.69.588,1.472,1.254,2.286,1.966.819-.713,1.6-1.381,2.293-1.969a41.631,41.631,0,0,0,4.823-4.516,6.264,6.264,0,0,0,1.714-4.125,5.085,5.085,0,0,0-1.276-3.475,4.219,4.219,0,0,0-3.139-1.364,3.886,3.886,0,0,0-2.426.84,5.685,5.685,0,0,0-1.352,1.564.74.74,0,0,1-1.27,0A5.68,5.68,0,0,0,8.013,2.012a3.885,3.885,0,0,0-2.426-.84Zm0,0" transform="translate(0 0)" fill="#f60606"/>
</svg>
