<svg xmlns="http://www.w3.org/2000/svg" width="24.996" height="25" viewBox="0 0 24.996 25">
  <g id="Group_4536" data-name="Group 4536" transform="translate(-293 -524)">
    <path id="Path_1375" data-name="Path 1375" d="M64,48.14a8,8,0,0,1,3.266,4.807,7.993,7.993,0,0,0,4.473-5.526A7.986,7.986,0,0,0,64,48.14Z" transform="translate(241.498 486.296)" fill="#50c5ff"/>
    <g id="Group_4535" data-name="Group 4535">
      <path id="Path_1371" data-name="Path 1371" d="M32.03,12.166a7.986,7.986,0,0,1,7.74-.719,7.981,7.981,0,1,0-15.57.041,7.985,7.985,0,0,1,7.83.677Z" transform="translate(273.468 522.271)" fill="#ff435b"/>
      <path id="Path_1372" data-name="Path 1372" d="M10.974,55.86A7.994,7.994,0,0,1,6.42,50.334c-.228.1-.454.22-.676.348A7.981,7.981,0,1,0,13.725,64.5c.181-.1.356-.218.526-.334a7.985,7.985,0,0,1-3.276-8.311Z" transform="translate(291.248 483.425)" fill="#64e1dc"/>
      <path id="Path_1373" data-name="Path 1373" d="M29.554,52.989a8,8,0,0,1,3.276-4.848A7.985,7.985,0,0,0,25,47.464,7.994,7.994,0,0,0,29.554,52.989Z" transform="translate(272.668 486.295)" fill="#ffe1ba"/>
      <path id="Path_1374" data-name="Path 1374" d="M72.506,50.518a8.017,8.017,0,0,0-.767-.389,7.993,7.993,0,0,1-4.473,5.526A7.985,7.985,0,0,1,64,64.007c.17.116.344.229.526.334a7.981,7.981,0,1,0,7.981-13.823Z" transform="translate(241.498 483.589)" fill="#47568c"/>
      <path id="Path_1376" data-name="Path 1376" d="M53.47,77.65a7.978,7.978,0,0,1-6.542.04A7.985,7.985,0,0,0,50.2,86,7.985,7.985,0,0,0,53.47,77.65Z" transform="translate(255.294 461.593)" fill="#ffda2d"/>
      <path id="Path_1377" data-name="Path 1377" d="M50.96,53.708a8,8,0,0,0-3.276,4.848,7.978,7.978,0,0,0,6.542-.04A8,8,0,0,0,50.96,53.708Z" transform="translate(254.538 480.729)" fill="#f5fbff"/>
    </g>
  </g>
</svg>
