<svg id="login" xmlns="http://www.w3.org/2000/svg" width="23.727" height="20.765" viewBox="0 0 23.727 20.765">
  <path id="Path_8" data-name="Path 8" d="M95.218,4.943A4.943,4.943,0,1,1,90.275,0a4.943,4.943,0,0,1,4.943,4.943Zm0,0" transform="translate(-81.378)" fill="#231f20"/>
  <path id="Path_9" data-name="Path 9" d="M13.1,256H4.7A4.7,4.7,0,0,0,0,260.7v3.46a.742.742,0,0,0,.741.741H17.054a.742.742,0,0,0,.741-.741V260.7a4.7,4.7,0,0,0-4.7-4.7Zm0,0" transform="translate(0 -244.136)" fill="#231f20"/>
  <path id="Path_10" data-name="Path 10" d="M308.318,110.1l-3.46-3.213a.743.743,0,0,0-1.247.544v2.224h-3.954a.989.989,0,0,0,0,1.977h3.954v2.224a.742.742,0,0,0,1.247.544l3.46-3.213a.744.744,0,0,0,0-1.088Zm0,0" transform="translate(-284.827 -101.744)" fill="#231f20"/>
</svg>
