<svg xmlns="http://www.w3.org/2000/svg" width="396.622" height="402.309" viewBox="0 0 396.622 402.309">
  <g id="Group_6" data-name="Group 6" transform="translate(-146 -680)">
    <path id="Path_1438" data-name="Path 1438" d="M57.6,222.7V79.4c0-16.1,10.7-26.7,26.8-26.7,43.8,0,87.6.1,131.4,0a27.951,27.951,0,0,1,20.7,8.7q33.6,33.9,67.5,67.5a28.171,28.171,0,0,1,8.8,21q-.15,108,0,216c0,16.8-10.3,27.1-27.1,27.1-66.8,0-133.6-.2-200.4.2-13.5.1-27.8-9.3-27.6-28.2.4-45.2.1-90.5.2-135.8a48.616,48.616,0,0,1-.3-6.5ZM210.9,69.2H84.4c-6.9,0-10,3-10.2,9.9-.1,1.9,0,3.7,0,5.6V365.4c0,7.9,3,10.9,10.8,10.9H284.6c8.8,0,11.5-2.6,11.5-11.4V158.5c0-1.3-.1-2.5-.2-4.2H238.5c-16.9,0-27.4-10.3-27.4-27.3-.1-17.4,0-34.9,0-52.3a47,47,0,0,1-.2-5.5Zm16.9,8.3a15.154,15.154,0,0,0-.2,2.3c0,15.7-.1,31.4,0,47.1,0,7.9,2.9,10.7,11,10.8,15.6.1,31.1,0,46.7,0a10.9,10.9,0,0,0,2.4-.3q-30-29.85-59.9-59.9Z" transform="translate(88.411 627.303)" fill="#ccc"/>
    <path id="Path_1439" data-name="Path 1439" d="M185.1,206h66.7c6.2,0,9.7,2.9,9.7,8,.1,5.3-3.5,8.5-9.8,8.5h-133c-5.1,0-8.4-2-9.6-5.6-1.8-5.8,2-10.9,8.4-10.9Z" transform="translate(88.411 627.303)" fill="#ccc"/>
    <path id="Path_1440" data-name="Path 1440" d="M185.3,188.3H118.6c-6.4,0-9.9-3.1-9.8-8.4.1-5.1,3.7-8.2,9.7-8.2H251.9c5.9,0,9.6,3.2,9.6,8.3,0,5.2-3.4,8.2-9.5,8.2Q218.55,188.35,185.3,188.3Z" transform="translate(88.411 627.303)" fill="#ccc"/>
    <path id="Path_1441" data-name="Path 1441" d="M185.2,290.6H118.5c-6.1,0-9.7-3-9.8-8.1-.1-5.2,3.7-8.5,9.8-8.5h133c3.9,0,7.6.8,8.9,4.6a12.8,12.8,0,0,1-.4,8.2c-1.3,3.3-4.7,3.8-8.1,3.8C229.7,290.5,207.4,290.6,185.2,290.6Z" transform="translate(88.411 627.303)" fill="#ccc"/>
    <path id="Path_1442" data-name="Path 1442" d="M185.3,308.2h67.5c6.2,0,10.1,5,8.5,10.6-1.1,3.9-4.5,5.9-9.7,5.9H118.2c-5.8,0-9.4-3.4-9.3-8.6.1-4.7,3.4-7.9,8.6-8,15.7-.1,31.4,0,47.1,0,6.8.1,13.7.1,20.7.1Z" transform="translate(88.411 627.303)" fill="#ccc"/>
    <path id="Path_1443" data-name="Path 1443" d="M185.3,240H250c1.3,0,2.7,0,4,.1,4.7.5,7.6,3.7,7.5,8.2,0,4.5-2.9,7.9-7.6,8.1-7.7.3-15.4.2-23.1.2H119.4a21.834,21.834,0,0,1-4.4-.4,7.841,7.841,0,0,1-6.2-7.8c0-4,2.4-7.4,6.3-8.1a38.243,38.243,0,0,1,6.8-.4Q153.55,240.05,185.3,240Z" transform="translate(88.411 627.303)" fill="#ccc"/>
    <path id="Path_1444" data-name="Path 1444" d="M142.9,137.8c8.2,0,16.5-.1,24.7,0,5.8.1,9.1,3.9,8.6,9.2-.4,4.5-3.6,7.2-8.9,7.3-8.2.1-16.5.1-24.7.1-8.1,0-16.2.1-24.3,0-6.1-.1-9.5-3.2-9.4-8.4.1-5,3.5-8,9.3-8.1,8.2-.2,16.4-.1,24.7-.1Z" transform="translate(88.411 627.303)" fill="#ccc"/>
    <circle id="Ellipse_38" data-name="Ellipse 38" cx="128.7" cy="128.7" r="128.7" transform="translate(230.911 769.604)" fill="#fff"/>
    <g id="Group_5" data-name="Group 5">
      <rect id="Rectangle_4287" data-name="Rectangle 4287" width="275.76" height="275.76" transform="translate(224.749 763.457)" fill="none" opacity="0.15"/>
      <g id="Group_4539" data-name="Group 4539" transform="translate(586.011 -7199.997)">
        <path id="Path_1445" data-name="Path 1445" d="M267.8,178.1c50.5-1.5,93.9,36.8,96.6,88.8a93.722,93.722,0,1,1-96.6-88.8Zm78.1,93.6a74.987,74.987,0,1,0-22.174,53.351A75.05,75.05,0,0,0,345.9,271.7Z" transform="translate(-497.6 7827.3)" fill="#188aec"/>
        <path id="Path_1446" data-name="Path 1446" d="M327.4,354.7a104.3,104.3,0,0,0,26.5-26.5c2.5,2.1,4.9,4.1,7.3,6.1,6.4,5.2,12.8,10.4,19.2,15.7,7.3,6.1,14.6,12.2,22,18.3l25.8,21.3c5.4,4.5,11,8.8,16.2,13.5,7.5,6.8,10.7,15.4,9.6,25.5-1.2,10.5-6.7,18.2-16,23.1a28.039,28.039,0,0,1-16.6,3.1c-8.6-.9-15.3-4.9-20.7-11.5-5-6.1-10.1-12-15.1-18l-23.7-28.8c-7.5-9.1-15.1-18.2-22.6-27.4-3.7-4.4-7.3-8.8-11-13.3A2.066,2.066,0,0,1,327.4,354.7Z" transform="translate(-497.6 7827.3)" fill="#188aec"/>
        <path id="Path_1447" data-name="Path 1447" d="M219.1,227c1.5-1.6,3-3.3,4.6-4.8a66.15,66.15,0,0,1,35.7-17.9,68.193,68.193,0,0,1,72.2,36c14.4,28.3,6.8,59.8-10.9,78,9.9-14.9,13.8-31.3,11.3-49-2.5-17.8-11.1-32.3-25-43.6a66.1,66.1,0,0,0-44.1-14.9c-16.4.3-30.8,6-43.4,16.6C219.3,227.3,219.2,227.1,219.1,227Z" transform="translate(-497.6 7827.3)" fill="#188aec"/>
        <path id="Path_1448" data-name="Path 1448" d="M298.4,253.2c4.4-.2,8.4,3.9,8.3,8.4a8.281,8.281,0,0,1-8.4,8.2,8.073,8.073,0,0,1-8.2-8.3,8.273,8.273,0,0,1,8.3-8.3Z" transform="translate(-497.6 7827.3)" fill="#188aec"/>
        <path id="Path_1449" data-name="Path 1449" d="M236.3,260c.3,4.8-4.1,8.4-8.2,8.3a8.386,8.386,0,0,1-8.4-8.4,8.259,8.259,0,0,1,8.2-8.3C232.7,251.7,236.5,255.4,236.3,260Z" transform="translate(-497.6 7827.3)" fill="#188aec"/>
        <path id="Path_1450" data-name="Path 1450" d="M266.1,305a32.308,32.308,0,0,1,18.4,7.1,4.731,4.731,0,0,1,1.5,1.7,2.8,2.8,0,0,1-.4,2.4c-.9,1-2.2.6-3.3-.1a45.143,45.143,0,0,0-5.4-3.5,27.552,27.552,0,0,0-18.3-2.6,29.655,29.655,0,0,0-12.6,5.8,3.287,3.287,0,0,1-1.6.7,3.069,3.069,0,0,1-2.2-.7,2.36,2.36,0,0,1-.1-2.3,17.767,17.767,0,0,1,3.5-3.2C250.9,306.9,257.7,305,266.1,305Z" transform="translate(-497.6 7827.3)" fill="#188aec"/>
        <path id="Path_1451" data-name="Path 1451" d="M298.3,247.8a20.811,20.811,0,0,1-9.5-2.3c-.7-.4-1.2-.9-.7-1.6.2-.3,1.2-.3,1.6-.1a19.7,19.7,0,0,0,17.4,0c.5-.2,1.4-.2,1.6.1.5.7-.1,1.2-.7,1.6A21.955,21.955,0,0,1,298.3,247.8Z" transform="translate(-497.6 7827.3)" fill="#188aec"/>
        <path id="Path_1452" data-name="Path 1452" d="M228,246.7a20.811,20.811,0,0,1-9.5-2.3c-.7-.4-1.2-.9-.7-1.6.2-.3,1.2-.3,1.6-.1a19.7,19.7,0,0,0,17.4,0c.5-.2,1.4-.2,1.6.1.5.7-.1,1.2-.7,1.6a20.677,20.677,0,0,1-9.7,2.3Z" transform="translate(-497.6 7827.3)" fill="#188aec"/>
      </g>
    </g>
  </g>
</svg>
