<svg xmlns="http://www.w3.org/2000/svg" width="48.941" height="53.953" viewBox="0 0 48.941 53.953">
  <g id="online" transform="translate(-32 -309)">
    <path id="Path_1102" data-name="Path 1102" d="M25.361,8.56,24.07,0H5.119A5.137,5.137,0,0,0,0,5.178V41.014a5.1,5.1,0,0,0,5.12,5.131H23.1L36.046,26.536V12.552Zm0,0" transform="translate(32 309)" fill="#00acea"/>
    <path id="Path_1103" data-name="Path 1103" d="M285.277.141l11.941,12.54h-7.949a3.989,3.989,0,0,1-3.992-3.992Zm0,0" transform="translate(-229.207 308.871)" fill="#00efd1"/>
    <path id="Path_1104" data-name="Path 1104" d="M85.784,321.024h15.3a1.174,1.174,0,1,0,0-2.348h-15.3a1.174,1.174,0,1,0,0,2.348Zm0,0" transform="translate(-45.471 17.212)" fill="#083863"/>
    <path id="Path_1105" data-name="Path 1105" d="M85.784,251.446H97.678a1.174,1.174,0,1,0,0-2.348H85.784a1.174,1.174,0,1,0,0,2.348Zm0,0" transform="translate(-45.471 80.92)" fill="#083863"/>
    <path id="Path_1106" data-name="Path 1106" d="M97.219,389.648H85.783a1.174,1.174,0,1,0,0,2.348H97.219a1.174,1.174,0,1,0,0-2.348Zm0,0" transform="translate(-45.47 -47.772)" fill="#083863"/>
    <path id="Path_1107" data-name="Path 1107" d="M241.666,285.154a14.928,14.928,0,1,1-2.09-.153,17.678,17.678,0,0,1,2.09.153Zm0,0" transform="translate(-173.606 47.999)" fill="#fedb41"/>
    <g id="Group_4540" data-name="Group 4540" transform="translate(-0.828 -0.25)">
      <path id="Path_1385" data-name="Path 1385" d="M179.314,118.236H168V117.05L169.207,104h9.655l1.207,13.347v.148A.748.748,0,0,1,179.314,118.236Z" transform="translate(-107.172 238.513)" fill="#00efd1"/>
      <path id="Path_1401" data-name="Path 1401" d="M268.827,21.042h-.6V17.78a1.2,1.2,0,0,0-1.207-1.186H265.81A1.2,1.2,0,0,0,264.6,17.78v3.263H264V17.78A1.8,1.8,0,0,1,265.81,16h1.207a1.8,1.8,0,0,1,1.81,1.78Z" transform="translate(-199.551 323.251)" fill="#083863"/>
      <ellipse id="Ellipse_41" data-name="Ellipse 41" cx="0.603" cy="0.593" rx="0.603" ry="0.593" transform="translate(68.371 343.996)" fill="#00acea"/>
      <ellipse id="Ellipse_42" data-name="Ellipse 42" cx="0.603" cy="0.593" rx="0.603" ry="0.593" transform="translate(64.147 343.996)" fill="#00acea"/>
    </g>
  </g>
</svg>
