<svg xmlns="http://www.w3.org/2000/svg" viewBox="0 0 270.608 309.267">
  <defs>
    <style>
      .cls-1 {
        fill: #e2574c;
      }

      .cls-2 {
        fill: #b53629;
      }

      .cls-3 {
        fill: #fff;
      }
    </style>
  </defs>
  <g id="pdf1" transform="translate(-19.329)">
    <path id="Path_22" data-name="Path 22" class="cls-1" d="M38.658,0H289.937V289.938a19.33,19.33,0,0,1-19.329,19.329H38.658a19.33,19.33,0,0,1-19.329-19.329V19.329A19.33,19.33,0,0,1,38.658,0Z"/>
    <path id="Path_23" data-name="Path 23" class="cls-2" d="M202.957.193Z"/>
    <path id="Path_24" data-name="Path 24" class="cls-3" d="M217.434,146.544c3.238,0,4.823-2.822,4.823-5.557,0-2.832-1.653-5.567-4.823-5.567h-18.44c-3.6,0-5.615,2.986-5.615,6.282v45.317c0,4.04,2.3,6.282,5.412,6.282,3.093,0,5.4-2.242,5.4-6.282V174.581h11.153c3.46,0,5.19-2.832,5.19-5.644,0-2.754-1.73-5.49-5.19-5.49H204.194v-16.9ZM155.107,135.42H141.615a5.966,5.966,0,0,0-6.263,6.243v45.4c0,4.629,3.74,6.079,6.417,6.079h14.159c16.758,0,27.824-11.027,27.824-28.047C183.743,147.1,173.325,135.42,155.107,135.42Zm.648,46.526H147.53V146.612h7.413c11.221,0,16.1,7.529,16.1,17.918C171.044,174.253,166.25,181.946,155.755,181.946ZM106.33,135.42H92.964c-3.779,0-5.886,2.493-5.886,6.282v45.317c0,4.04,2.416,6.282,5.663,6.282s5.663-2.242,5.663-6.282V173.788h8.379c10.341,0,18.875-7.326,18.875-19.107C125.659,143.152,117.425,135.42,106.33,135.42Zm-.222,27.738H98.4v-17.1h7.7c4.755,0,7.78,3.711,7.78,8.553S110.863,163.158,106.108,163.158Z"/>
  </g>
</svg>
