<svg height="512" viewBox="0 0 512 512" width="512" xmlns="http://www.w3.org/2000/svg"><path d="m377.584 242.533-9.584-1.533-65-10-16 60-31-30-31 30-16-60-65 10-9.584 1.533a48 48 0 0 0 -40.416 47.397v158.07a25 25 0 0 0 25 25 25 25 0 0 0 25-25v54h274v-212.07a48 48 0 0 0 -40.416-47.397z" fill="#6e83b7"/><path d="m289 201v19l-33 41-33-41v-19z" fill="#ffd3b3"/><path d="m223.32 214.39a76.914 76.914 0 0 0 65.36 0v-13.369h-65.36z" fill="#fcb98b"/><path d="m188 62v80.01a68 68 0 0 0 136 0v-80.01z" fill="#ffd3b3"/><path d="m334 141h-10v-40h10a10 10 0 0 1 10 10v20a10 10 0 0 1 -10 10z" fill="#ffd3b3"/><path d="m178 141h10v-40h-10a10 10 0 0 0 -10 10v20a10 10 0 0 0 10 10z" fill="#ffd3b3"/><path d="m251 431h10v71h-10z" fill="#466089"/><path d="m310 444h10v60h-10z" fill="#466089" transform="matrix(0 1 -1 0 789 159)"/><path d="m192 444h10v60h-10z" fill="#466089" transform="matrix(0 1 -1 0 671 277)"/><path d="m287 291-31-30-31 30 31 149z" fill="#d3d3d3"/><path d="m256 297h7l8.58-20.922-15.58-15.078-15.58 15.078 8.58 20.922z" fill="#ffb0aa"/><path d="m223 220-14 11 16 60 31-30z" fill="#edeff1"/><path d="m289 220 14 11-16 60-31-30z" fill="#edeff1"/><path d="m271 10h-33a60 60 0 0 0 -60 60v31h10v44l14.367-44h43.633a40 40 0 0 0 40-40v-36a15 15 0 0 0 -15-15z" fill="#6e83b7"/><path d="m294 25h-8v36a40 40 0 0 0 22.282 35.863l15.718 48.137v-44h10v-36a40 40 0 0 0 -40-40z" fill="#6e83b7"/><path d="m263 297 8 71-15 72-15-72 8-71z" fill="#ffb0aa"/><path d="m263.563 301.999-.563-4.999h-14l-.563 4.999z" fill="#ff7b7b"/><path d="m358 322h10v180h-10z" fill="#466089"/><path d="m119 471a23 23 0 0 1 -23-23v-58.536a3.464 3.464 0 0 1 3.464-3.464h39.072a3.464 3.464 0 0 1 3.464 3.464v58.536a23 23 0 0 1 -23 23z" fill="#466089"/><path d="m144 386h10v87h-10z" fill="#466089" transform="matrix(-1 0 0 -1 298 859)"/><path d="m132 432h-35v32h23a18 18 0 0 0 18-18v-8a6 6 0 0 0 -6-6z" fill="#fcb98b"/><path d="m132 432h-35v-32h23a18 18 0 0 1 18 18v8a6 6 0 0 1 -6 6z" fill="#fcb98b"/><rect fill="#ffd3b3" height="18" rx="9" transform="matrix(0 1 -1 0 538 278)" width="36" x="112" y="399"/><path d="m130.168 408.726a11.97 11.97 0 0 0 -3.271-18.165 8.995 8.995 0 0 0 -5.897 8.439v18a8.989 8.989 0 0 0 13.51 7.78 11.963 11.963 0 0 0 -4.342-16.054z" fill="#fcb98b"/><path d="m96 382h24v120h-24z" fill="#ff7b7b"/><g fill="#ffd3b3"><rect height="18" rx="9" width="46" x="84" y="392"/><rect height="18" rx="9" width="46" x="84" y="428"/><rect height="18" rx="9" width="38" x="88" y="446"/><rect height="18" rx="9" width="52" x="81" y="410"/></g><path d="m303 231 32 46-32 66 18 18-65 79 31-149z" fill="#466089"/><path d="m209 231-32 46 32 66-18 18 65 79-31-149z" fill="#466089"/><path d="m18 252h180v130h-180z" fill="#ffb0aa"/><path d="m53 237h110v160h-110z" fill="#edeff1" transform="matrix(0 1 -1 0 425 209)"/><path d="m101 253h14v100h-14z" fill="#6e83b7" transform="matrix(0 1 -1 0 411 195)"/><path d="m101 261h14v140h-14z" fill="#6e83b7" transform="matrix(0 1 -1 0 439 223)"/></svg>