<svg id="Capa_1" enable-background="new 0 0 497 497" height="512" viewBox="0 0 497 497" width="512" xmlns="http://www.w3.org/2000/svg"><g><path d="m475.052 199.244-203.945-190.334c-12.73-11.88-32.484-11.88-45.213 0l-203.944 190.334v207.59h453.102z" fill="#ffbd61"/><path d="m181.591 348.23 44.304 41.347c12.73 11.88 32.483 11.88 45.213 0 0 0 68.809-64.218 126.492-118.051v-221.826c0-9.149-7.417-16.567-16.567-16.567h-265.067c-9.15 0-16.567 7.417-16.567 16.567v221.824z" fill="#f9f5f3"/><path d="m381.034 33.134h-23c9.15 0 16.567 7.417 16.567 16.567v243.292c7.738-7.221 15.464-14.432 23-21.465v-221.828c-.001-9.149-7.418-16.566-16.567-16.566z" fill="#f9eae0"/><path d="m21.95 199.244 159.641 148.986 44.304 41.347c12.73 11.88 32.484 11.88 45.213 0 0 0 203.943-190.334 203.944-190.333 3.308 3.029 5.382 7.383 5.382 12.221v252.4c0 18.299-14.834 33.133-33.133 33.133h-53.842-289.918-53.842c-18.299 0-33.133-14.834-33.133-33.133v-252.4c0-4.839 2.075-9.194 5.383-12.223z" fill="#ffce69"/><path d="m21.95 199.244 159.641 148.986 44.304 41.347c12.73 11.88 32.484 11.88 45.213 0 0 0 203.943-190.334 203.944-190.333 3.308 3.029 5.382 7.383 5.382 12.221v252.4c0 18.299-14.834 33.133-33.133 33.133h-53.842-289.918-53.842c-18.299 0-33.133-14.834-33.133-33.133v-252.4c0-4.839 2.075-9.194 5.383-12.223z" fill="#ffce69"/><path d="m475.053 199.245s-6.68 6.234-17.618 16.442v248.18c0 18.299-14.835 33.134-33.134 33.134h23c18.299 0 33.134-14.834 33.134-33.134v-252.4c0-4.839-2.075-9.193-5.382-12.222z" fill="#ffbd61"/><path d="m430.734 463.869c9.15 0 16.567-7.417 16.567-16.567s-7.417-16.567-16.567-16.567h-66.267c-9.15 0-16.567 7.417-16.567 16.567s7.417 16.567 16.567 16.567z" fill="#f9f5f3"/><path d="m430.734 430.736h-23c9.15 0 16.567 7.417 16.567 16.567s-7.417 16.567-16.567 16.567h23c9.15 0 16.567-7.417 16.567-16.567s-7.417-16.567-16.567-16.567z" fill="#f9eae0"/><g><g><ellipse cx="248.501" cy="246.067" fill="#a0c8ff" rx="16.567" ry="16.567" transform="matrix(.16 -.987 .987 .16 -34.194 451.943)"/><g><path d="m248.501 196.367c-9.15 0-16.567-7.417-16.567-16.567v-16.567c0-15.174 8.971-28.663 22.853-34.364 6.619-2.718 10.733-9.367 10.238-16.545-.554-8.035-7.28-14.762-15.314-15.316-4.66-.315-9.117 1.244-12.509 4.41-3.398 3.17-5.268 7.473-5.268 12.116 0 9.15-7.417 16.567-16.567 16.567s-16.567-7.417-16.567-16.567c0-13.725 5.757-26.969 15.793-36.338 10.032-9.363 23.654-14.194 37.398-13.242 24.579 1.696 44.393 21.51 46.087 46.09 1.48 21.442-10.86 41.326-30.706 49.476-1.379.566-2.306 2.059-2.306 3.714v16.566c.001 9.15-7.415 16.567-16.565 16.567z" fill="#a0c8ff"/></g></g></g></g></svg>