<svg id="route" xmlns="http://www.w3.org/2000/svg" width="25" height="25" viewBox="0 0 25 25">
  <path id="Path_1211" data-name="Path 1211" d="M69.431,301.262a2.2,2.2,0,0,1-2.2-2.2v-.01a2.2,2.2,0,0,1,4.395,0v.01A2.2,2.2,0,0,1,69.431,301.262Z" transform="translate(-63.951 -282.363)" fill="#a7a7a7"/>
  <g id="Group_4268" data-name="Group 4268" transform="translate(0)">
    <g id="Group_4256" data-name="Group 4256" transform="translate(0 3.344)">
      <g id="Group_4252" data-name="Group 4252" transform="translate(8.441 11.797)">
        <path id="Path_1212" data-name="Path 1212" d="M177.594,310.822a.733.733,0,0,0-.732-.732H173.6a.732.732,0,0,0,0,1.465h3.259A.733.733,0,0,0,177.594,310.822Z" transform="translate(-172.87 -310.09)" fill="#eae7ea"/>
        <path id="Path_1213" data-name="Path 1213" d="M238.669,310.09h-.818v1.465h.818a.732.732,0,0,0,0-1.465Z" transform="translate(-234.678 -310.09)" fill="#d5d5d5"/>
      </g>
      <g id="Group_4253" data-name="Group 4253" transform="translate(0 0.195)">
        <path id="Path_1214" data-name="Path 1214" d="M99.7,482H97.966a.732.732,0,0,0,0,1.465H99.7a.732.732,0,1,0,0-1.465Z" transform="translate(-92.486 -462.004)" fill="#eae7ea"/>
        <path id="Path_1215" data-name="Path 1215" d="M1.465,166.4a5.187,5.187,0,0,1,.109-1.063.73.73,0,0,0,.016-.152.733.733,0,0,0-1.45-.147A6.7,6.7,0,0,0,0,166.4a6.607,6.607,0,0,0,.385,2.23l0,.014h0a.732.732,0,0,0,1.421-.249.742.742,0,0,0-.043-.248A5.151,5.151,0,0,1,1.465,166.4Z" transform="translate(0 -159.96)" fill="#eae7ea"/>
        <path id="Path_1216" data-name="Path 1216" d="M34.444,75.369a5.16,5.16,0,0,1,2.422-1.438.733.733,0,0,0-.187-1.441.723.723,0,0,0-.188.025,6.619,6.619,0,0,0-3.109,1.846.732.732,0,1,0,1.062,1.009Z" transform="translate(-31.56 -72.49)" fill="#eae7ea"/>
      </g>
      <path id="Path_1217" data-name="Path 1217" d="M308.754,315.789a.732.732,0,0,0,1.254-.757h0a4.937,4.937,0,0,0-2.993-2.228.732.732,0,1,0-.364,1.418,3.426,3.426,0,0,1,1.21.582A3.462,3.462,0,0,1,308.754,315.789Z" transform="translate(-291.154 -300.852)" fill="#d5d5d5"/>
      <path id="Path_1218" data-name="Path 1218" d="M333.589,416.217a.724.724,0,0,0-.408-.262.739.739,0,0,0-.62.136.725.725,0,0,0-.262.408,3.429,3.429,0,0,1-.559,1.222,3.474,3.474,0,0,1-.969.91.732.732,0,0,0,.781,1.239,4.937,4.937,0,0,0,2.172-3.033.744.744,0,0,0,.02-.17A.733.733,0,0,0,333.589,416.217Z" transform="translate(-314.296 -398.971)" fill="#d5d5d5"/>
      <path id="Path_1219" data-name="Path 1219" d="M292.147,69.955a.732.732,0,0,0,0-1.465H290.4a.732.732,0,0,0,0,1.465h1.745Z" transform="translate(-275.526 -68.49)" fill="#d5d5d5"/>
      <g id="Group_4254" data-name="Group 4254" transform="translate(9.74 20.191)">
        <path id="Path_1220" data-name="Path 1220" d="M203.461,482H200.2a.732.732,0,0,0,0,1.465h3.258a.732.732,0,1,0,0-1.465Z" transform="translate(-199.47 -482)" fill="#eae7ea"/>
        <path id="Path_1221" data-name="Path 1221" d="M239.968,482h-2.117v1.465h2.117a.732.732,0,0,0,0-1.465Z" transform="translate(-235.977 -482)" fill="#d5d5d5"/>
      </g>
      <g id="Group_4255" data-name="Group 4255" transform="translate(7.627)">
        <path id="Path_1222" data-name="Path 1222" d="M160.933,69.222a.733.733,0,0,0-.732-.732h-3.258a.732.732,0,0,0,0,1.465H160.2A.733.733,0,0,0,160.933,69.222Z" transform="translate(-156.21 -68.49)" fill="#eae7ea"/>
        <path id="Path_1223" data-name="Path 1223" d="M237.855,68.49h0v1.465h0a.732.732,0,0,0,0-1.465Z" transform="translate(-233.865 -68.49)" fill="#d5d5d5"/>
      </g>
    </g>
    <g id="Group_4267" data-name="Group 4267" transform="translate(0.042)">
      <g id="Group_4261" data-name="Group 4261" transform="translate(16.081)">
        <g id="Group_4257" data-name="Group 4257">
          <path id="Path_1224" data-name="Path 1224" d="M334.628,11.261a.732.732,0,0,1-.54-.238c-.039-.043-.965-1.055-1.9-2.34-1.342-1.835-1.994-3.223-1.994-4.245a4.439,4.439,0,1,1,8.878,0c0,1.022-.652,2.41-1.994,4.245-.94,1.285-1.865,2.3-1.9,2.34A.732.732,0,0,1,334.628,11.261Z" transform="translate(-330.189)" fill="#ff4a4a"/>
          <path id="Path_1225" data-name="Path 1225" d="M421.094,0V11.261a.732.732,0,0,0,.54-.238c.039-.043.965-1.055,1.9-2.34,1.342-1.835,1.994-3.223,1.994-4.245A4.444,4.444,0,0,0,421.094,0Z" transform="translate(-416.655)" fill="#c6001c"/>
        </g>
        <g id="Group_4260" data-name="Group 4260" transform="translate(2.241 2.386)">
          <g id="Group_4258" data-name="Group 4258">
            <path id="Path_1226" data-name="Path 1226" d="M378.291,53.262a2.2,2.2,0,0,1-2.2-2.2v-.01a2.2,2.2,0,1,1,4.395,0v.01A2.2,2.2,0,0,1,378.291,53.262Z" transform="translate(-376.094 -48.858)" fill="#eae7ea"/>
            <path id="Path_1227" data-name="Path 1227" d="M421.094,48.858v4.4a2.2,2.2,0,0,0,2.2-2.2v-.01A2.2,2.2,0,0,0,421.094,48.858Z" transform="translate(-418.897 -48.858)" fill="#d5d5d5"/>
          </g>
          <g id="Group_4259" data-name="Group 4259" transform="translate(1.465 1.465)">
            <path id="Path_1228" data-name="Path 1228" d="M406.826,80.333a.732.732,0,0,1-.732-.732v-.01a.732.732,0,0,1,1.465,0v.01A.732.732,0,0,1,406.826,80.333Z" transform="translate(-406.094 -78.858)" fill="#ff4a4a"/>
            <path id="Path_1229" data-name="Path 1229" d="M421.094,78.858v1.475a.732.732,0,0,0,.732-.732v-.01A.732.732,0,0,0,421.094,78.858Z" transform="translate(-420.362 -78.858)" fill="#c6001c"/>
          </g>
        </g>
      </g>
      <g id="Group_4266" data-name="Group 4266" transform="translate(0 11.054)">
        <g id="Group_4262" data-name="Group 4262">
          <path id="Path_1230" data-name="Path 1230" d="M6.29,240.3a.732.732,0,0,1-.54-.238c-.049-.054-1.218-1.332-2.4-2.954-1.678-2.294-2.494-4.02-2.494-5.274a5.439,5.439,0,1,1,10.877,0c0,1.254-.816,2.979-2.494,5.274-1.187,1.622-2.355,2.9-2.4,2.954a.732.732,0,0,1-.54.238Z" transform="translate(-0.851 -226.392)" fill="#ff4a4a"/>
          <path id="Path_1231" data-name="Path 1231" d="M112.234,226.393v13.9a.732.732,0,0,0,.54-.238c.049-.054,1.218-1.332,2.4-2.954,1.678-2.294,2.494-4.02,2.494-5.274A5.445,5.445,0,0,0,112.234,226.393Z" transform="translate(-106.795 -226.393)" fill="#c6001c"/>
        </g>
        <g id="Group_4265" data-name="Group 4265" transform="translate(3.241 3.441)">
          <g id="Group_4263" data-name="Group 4263">
            <path id="Path_1232" data-name="Path 1232" d="M69.431,301.262a2.2,2.2,0,0,1-2.2-2.2v-.01a2.2,2.2,0,0,1,4.395,0v.01A2.2,2.2,0,0,1,69.431,301.262Z" transform="translate(-67.234 -296.858)" fill="#eae7ea"/>
            <path id="Path_1233" data-name="Path 1233" d="M112.234,296.858v4.4a2.2,2.2,0,0,0,2.2-2.2v-.01A2.2,2.2,0,0,0,112.234,296.858Z" transform="translate(-110.037 -296.858)" fill="#d5d5d5"/>
          </g>
          <g id="Group_4264" data-name="Group 4264" transform="translate(1.465 1.465)">
            <path id="Path_1234" data-name="Path 1234" d="M97.966,328.333a.732.732,0,0,1-.732-.732v-.01a.732.732,0,0,1,1.465,0v.01A.732.732,0,0,1,97.966,328.333Z" transform="translate(-97.234 -326.858)" fill="#ff4a4a"/>
            <path id="Path_1235" data-name="Path 1235" d="M112.234,326.858v1.475a.732.732,0,0,0,.732-.732v-.01A.732.732,0,0,0,112.234,326.858Z" transform="translate(-111.502 -326.858)" fill="#c6001c"/>
          </g>
        </g>
      </g>
    </g>
  </g>
</svg>
