<svg xmlns="http://www.w3.org/2000/svg" width="46.553" height="35" viewBox="0 0 46.553 35">
  <g id="wrk_time-start" transform="translate(19195 2432)">
    <circle id="Ellipse_46" data-name="Ellipse 46" cx="16.818" cy="16.818" r="16.818" transform="translate(-19182.766 -2431.318)" fill="#95d6a4"/>
    <path id="Path_1592" data-name="Path 1592" d="M306.876,71.029q-.639,0-1.265.047a16.819,16.819,0,0,1,0,33.542q.627.047,1.265.047a16.818,16.818,0,1,0,0-33.636Z" transform="translate(-19472.824 -2502.347)" fill="#78c2a4"/>
    <circle id="Ellipse_47" data-name="Ellipse 47" cx="12.914" cy="12.914" r="12.914" transform="translate(-19178.861 -2427.414)" fill="#f4fbff"/>
    <path id="Path_1593" data-name="Path 1593" d="M307.876,113.967c-.393,0-.781.019-1.165.053a12.914,12.914,0,0,1,0,25.722c.384.034.772.053,1.165.053a12.914,12.914,0,1,0,0-25.828Z" transform="translate(-19473.824 -2541.381)" fill="#daf1f4"/>
    <path id="Path_1594" data-name="Path 1594" d="M32.054,135.574h7.192a.682.682,0,0,0,0-1.364H32.054a.682.682,0,0,0,0,1.364Z" transform="translate(-19223.52 -2559.784)"/>
    <path id="Path_1595" data-name="Path 1595" d="M80.035,185.317H77.194a.682.682,0,0,0,0,1.364h2.841a.682.682,0,1,0,0-1.364Z" transform="translate(-19264.555 -2606.244)"/>
    <path id="Path_1596" data-name="Path 1596" d="M.682,223.691H7.639a.682.682,0,1,0,0-1.364H.682a.682.682,0,1,0,0,1.364Z" transform="translate(-19195 -2639.889)"/>
    <path id="Path_1597" data-name="Path 1597" d="M39.928,363.471a.682.682,0,0,0-.682-.682H32.054a.682.682,0,0,0,0,1.364h7.192A.682.682,0,0,0,39.928,363.471Z" transform="translate(-19223.52 -2767.58)"/>
    <path id="Path_1598" data-name="Path 1598" d="M80.035,311.683H77.194a.682.682,0,0,0,0,1.364h2.841a.682.682,0,0,0,0-1.364Z" transform="translate(-19264.555 -2721.12)"/>
    <path id="Path_1599" data-name="Path 1599" d="M8.321,275.355a.682.682,0,0,0-.682-.682H.682a.682.682,0,1,0,0,1.364H7.639A.682.682,0,0,0,8.321,275.355Z" transform="translate(-19195 -2687.476)"/>
    <path id="Path_1600" data-name="Path 1600" d="M312.711,141.787a.682.682,0,0,0,.682-.682v-1.041a.682.682,0,1,0-1.364,0V141.1A.682.682,0,0,0,312.711,141.787Z" transform="translate(-19478.658 -2564.486)"/>
    <path id="Path_1601" data-name="Path 1601" d="M382.991,171.542a.682.682,0,0,0-.964,0l-.736.736a.682.682,0,0,0,.964.964l.736-.736A.682.682,0,0,0,382.991,171.542Z" transform="translate(-19541.441 -2593.54)"/>
    <path id="Path_1602" data-name="Path 1602" d="M410.381,248.5a.682.682,0,1,0,0,1.364h1.041a.682.682,0,0,0,0-1.364Z" transform="translate(-19567.447 -2663.682)"/>
    <path id="Path_1603" data-name="Path 1603" d="M382.255,317.763a.682.682,0,0,0-.964.964l.736.736a.682.682,0,0,0,.964-.964Z" transform="translate(-19541.441 -2726.466)"/>
    <path id="Path_1604" data-name="Path 1604" d="M312.029,346.852v1.041a.682.682,0,1,0,1.364,0v-1.041a.682.682,0,1,0-1.364,0Z" transform="translate(-19478.658 -2752.472)"/>
    <path id="Path_1605" data-name="Path 1605" d="M235.806,317.763l-.736.736a.682.682,0,1,0,.964.964l.736-.736a.682.682,0,0,0-.964-.964Z" transform="translate(-19408.516 -2726.466)"/>
    <path id="Path_1606" data-name="Path 1606" d="M203.593,248.5a.682.682,0,0,0,0,1.364h1.041a.682.682,0,0,0,0-1.364Z" transform="translate(-19379.461 -2663.682)"/>
    <path id="Path_1607" data-name="Path 1607" d="M236.771,172.278l-.736-.736a.682.682,0,1,0-.964.964l.736.736a.682.682,0,0,0,.964-.964Z" transform="translate(-19408.516 -2593.54)"/>
    <path id="Path_1608" data-name="Path 1608" d="M316.378,191.743a.682.682,0,0,0-.682-.682h-2.3V186a.682.682,0,0,0-1.364,0v5.745a.682.682,0,0,0,.682.682H315.7A.682.682,0,0,0,316.378,191.743Z" transform="translate(-19478.658 -2606.243)"/>
    <path id="Path_1609" data-name="Path 1609" d="M196.522,119.951a.682.682,0,0,0,.639-.722,13.586,13.586,0,1,0-.125,2.869.682.682,0,1,0-1.349-.2,12.241,12.241,0,1,1,.113-2.584A.682.682,0,0,0,196.522,119.951Z" transform="translate(-19349.539 -2534.564)"/>
    <path id="Path_1610" data-name="Path 1610" d="M123.306,63.529a17.493,17.493,0,0,0-6.912,1.428H104.363a.682.682,0,1,0,0,1.364h9.466a17.481,17.481,0,0,0-3.5,2.964.682.682,0,1,0,1.011.915,16.1,16.1,0,1,1-1.6,2.082.682.682,0,0,0-1.146-.74,17.5,17.5,0,0,0,5.235,24.194h-9.471a.682.682,0,0,0,0,1.364h12.022a17.5,17.5,0,1,0,6.921-33.572Z" transform="translate(-19289.254 -2495.529)"/>
  </g>
</svg>
