<svg xmlns="http://www.w3.org/2000/svg" width="50" height="50" viewBox="0 0 50 50">
  <g id="navigation-icon" transform="translate(12197 -1802)">
    <g id="Group_2679" data-name="Group 2679" transform="translate(3535 30)">
      <g id="Ellipse_165" data-name="Ellipse 165" transform="translate(-15732 1772)" fill="#fff" stroke="#fff" stroke-width="1">
        <circle cx="25" cy="25" r="25" stroke="none"/>
        <circle cx="25" cy="25" r="24.5" fill="none"/>
      </g>
      <g id="Group_2606" data-name="Group 2606" transform="translate(-16340 -2655)" opacity="0.4">
        <path id="Rectangle_1199" data-name="Rectangle 1199" d="M8,0H8A0,0,0,0,1,8,0V8A0,0,0,0,1,8,8H0A0,0,0,0,1,0,8V8A8,8,0,0,1,8,0Z" transform="translate(623 4442)"/>
        <path id="Rectangle_1202" data-name="Rectangle 1202" d="M0,0H8A0,0,0,0,1,8,0V8A0,0,0,0,1,8,8H8A8,8,0,0,1,0,0V0A0,0,0,0,1,0,0Z" transform="translate(623 4455)"/>
        <path id="Rectangle_1200" data-name="Rectangle 1200" d="M0,0H0A8,8,0,0,1,8,8V8A0,0,0,0,1,8,8H0A0,0,0,0,1,0,8V0A0,0,0,0,1,0,0Z" transform="translate(636 4442)"/>
        <path id="Rectangle_1201" data-name="Rectangle 1201" d="M0,0H8A0,0,0,0,1,8,0V0A8,8,0,0,1,0,8H0A0,0,0,0,1,0,8V0A0,0,0,0,1,0,0Z" transform="translate(636 4455)"/>
      </g>
    </g>
  </g>
</svg>
