<svg enable-background="new 0 0 256 256" height="512" viewBox="0 0 256 256" width="512" xmlns="http://www.w3.org/2000/svg"><path d="m234.993 152.439c-1.96 8.65 8.85 21.74 5.08 29.55-3.83 7.94-20.84 7.63-26.29 14.44-5.47 6.85-1.4 23.37-8.25 28.84-6.82 5.44-22-2.18-29.94 1.65-7.81 3.77-11.29 20.43-19.95 22.39-8.38 1.91-18.72-11.55-27.68-11.55s-19.3 13.46-27.69 11.55c-1.01-.23-1.95-.66-2.84-1.25-6.69-4.44-10.21-17.81-17.1-21.14-3.15-1.52-7.45-1.24-11.91-.68-5.2.65-10.61 1.66-14.71.62-1.24-.32-2.37-.83-3.32-1.59-6.85-5.47-2.79-21.99-8.26-28.84-5.44-6.81-22.45-6.5-26.28-14.44-3.77-7.81 7.04-20.9 5.07-29.55-1.9-8.38-17.37-15.48-17.37-24.44s15.47-16.06 17.37-24.44c1.97-8.65-8.84-21.75-5.07-29.56 3.83-7.93 20.84-7.62 26.28-14.44 5.47-6.85 1.41-23.36 8.26-28.83.96-.77 2.08-1.27 3.33-1.59 4.09-1.04 9.51-.03 14.71.61 4.46.56 8.75.85 11.9-.67 6.89-3.33 10.41-16.69 17.09-21.14.89-.6 1.83-1.03 2.85-1.26 8.39-1.9 18.73 11.55 27.69 11.55s19.3-13.45 27.68-11.55c8.66 1.97 12.14 18.63 19.95 22.4 7.94 3.83 23.12-3.79 29.94 1.65 6.85 5.47 2.78 21.98 8.25 28.83 5.45 6.82 22.46 6.51 26.29 14.45 3.77 7.8-7.04 20.9-5.08 29.55 1.91 8.38 17.38 15.48 17.38 24.44s-15.47 16.06-17.38 24.44z" fill="#ff4a73"/><circle cx="127.953" cy="127.999" fill="#f9d335" r="87.25"/><path d="m215.203 127.999c0 48.19-39.06 87.25-87.25 87.25-2.53 0-5.03-.11-7.5-.32 44.68-3.8 79.75-41.27 79.75-86.93s-35.07-83.13-79.75-86.93c2.47-.21 4.97-.32 7.5-.32 48.19 0 87.25 39.06 87.25 87.25z" fill="#f2c300"/><path d="m135.453 214.929c-2.47.21-4.97.32-7.5.32-48.19 0-87.25-39.06-87.25-87.25s39.06-87.25 87.25-87.25c2.53 0 5.03.11 7.5.32-44.68 3.8-79.75 41.27-79.75 86.93s35.07 83.13 79.75 86.93z" fill="#f9e27d"/><path d="m30.853 73.999c-3.77 7.81 7.04 20.91 5.07 29.56-1.9 8.38-17.37 15.48-17.37 24.44s15.47 16.06 17.37 24.44c1.97 8.65-8.84 21.74-5.07 29.55 3.83 7.94 20.84 7.63 26.28 14.44 5.47 6.85 1.41 23.37 8.26 28.84.57.46 1.21.83 1.91 1.12-4.85.63-9.78 1.44-13.59.47-1.24-.32-2.37-.83-3.32-1.59-6.85-5.47-2.79-21.99-8.26-28.84-5.44-6.81-22.45-6.5-26.28-14.44-3.77-7.81 7.04-20.9 5.07-29.55-1.9-8.38-17.37-15.48-17.37-24.44s15.47-16.06 17.37-24.44c1.97-8.65-8.84-21.75-5.07-29.56 3.83-7.93 20.84-7.62 26.28-14.44 5.47-6.85 1.41-23.36 8.26-28.83.96-.77 2.08-1.27 3.33-1.59 3.8-.97 8.74-.16 13.59.47-.7.28-1.34.65-1.92 1.12-6.85 5.47-2.79 21.98-8.26 28.83-5.44 6.82-22.45 6.51-26.28 14.44z" fill="#f973a3"/><path d="m203.633 29.609c-4.63.62-9.18 1.08-12.56-.32 4.66-.62 9.21-1.08 12.56.32z" fill="#f973a3"/><path d="m234.993 152.439c-1.96 8.65 8.85 21.74 5.08 29.55-3.83 7.94-20.84 7.63-26.29 14.44-5.47 6.85-1.4 23.37-8.25 28.84-3.88 3.1-10.47 1.96-16.9 1.12.69-.3 1.32-.66 1.9-1.12 6.85-5.47 2.78-21.99 8.25-28.84 5.45-6.81 22.46-6.5 26.29-14.44 3.77-7.81-7.04-20.9-5.08-29.55 1.91-8.38 17.38-15.48 17.38-24.44s-15.47-16.06-17.38-24.44c-1.96-8.65 8.85-21.75 5.08-29.55-3.83-7.94-20.84-7.63-26.29-14.45-5.47-6.85-1.4-23.36-8.25-28.83-.58-.46-1.21-.82-1.9-1.12 6.43-.84 13.02-1.98 16.9 1.12 6.85 5.47 2.78 21.98 8.25 28.83 5.45 6.82 22.46 6.51 26.29 14.45 3.77 7.8-7.04 20.9-5.08 29.55 1.91 8.38 17.38 15.48 17.38 24.44s-15.47 16.06-17.38 24.44z" fill="#ea2a6a"/><path d="m232.483 105.899v44.2c0 12.5-10.13 22.63-22.63 22.63h-163.8c-12.5 0-22.63-10.13-22.63-22.63v-44.2c0-12.5 10.13-22.63 22.63-22.63h163.8c12.5 0 22.63 10.13 22.63 22.63z" fill="#5fcdff"/><path d="m61.053 172.729h-15c-12.5 0-22.63-10.13-22.63-22.63v-44.2c0-12.5 10.13-22.63 22.63-22.63h15c-12.5 0-22.63 10.13-22.63 22.63v44.2c0 12.5 10.13 22.63 22.63 22.63z" fill="#73d7f9"/><path d="m232.483 105.899v44.2c0 12.5-10.13 22.63-22.63 22.63h-15c12.5 0 22.63-10.13 22.63-22.63v-44.2c0-12.5-10.13-22.63-22.63-22.63h15c12.5 0 22.63 10.13 22.63 22.63z" fill="#30b6ff"/><g fill="#5f266d"><path d="m238.893 102.669c-2.514-10.971 21.217-29.963-11.28-40.48-11.81-3.82-12.252-4.397-13.35-16.77-1.701-18.651-6.529-22.393-24.93-19.94-12.414 1.67-13.011 1.338-19.32-9.24-9.747-16.318-15.808-17.332-31.02-7.29-10.592 6.99-11.504 6.979-22.08 0-15.018-9.941-21.176-9.192-31.02 7.29-6.304 10.57-6.914 10.908-19.32 9.24-18.323-2.443-23.241 1.225-24.92 19.94-1.125 12.381-1.53 12.943-13.36 16.77-32.715 10.587-8.672 29.099-11.28 40.48-.61 2.7-4.01 5.94-7.3 9.08-24.899 23.804 4.932 31.098 7.3 41.58 2.514 10.971-21.217 29.963 11.28 40.48 11.81 3.82 12.252 4.397 13.35 16.77 1.701 18.651 6.529 22.393 24.93 19.94 12.414-1.67 13.011-1.338 19.32 9.24 9.594 16.062 15.596 17.466 31.02 7.29 10.592-6.99 11.504-6.979 22.08 0 15.018 9.941 21.173 9.196 31.02-7.29 6.304-10.57 6.914-10.908 19.32-9.24 18.323 2.443 23.241-1.225 24.92-19.94 1.125-12.38 1.53-12.943 13.36-16.77 32.715-10.587 8.672-29.099 11.28-40.48.61-2.7 4.01-5.94 7.3-9.08 25.072-23.968-4.833-30.661-7.3-41.58zm-13.74 83.53c-14.943 4.846-17.441 7.855-18.86 23.66-1.246 13.894-2.239 14.557-15.89 12.73-15.788-2.127-19.284-.314-27.26 13.07-7.201 12.074-8.379 12.197-19.75 4.72-13.366-8.829-17.504-8.836-30.88 0-11.327 7.449-12.524 7.396-19.75-4.72-7.97-13.374-11.366-15.186-27.26-13.07-13.666 1.829-14.645 1.153-15.89-12.73-1.41-15.704-3.856-18.822-18.86-23.66-15.822-5.113-12.796-6.312-7.47-22.29 4.69 7.68 13.14 12.82 22.77 12.82h4.78c16.19 25.54 44.71 42.52 77.12 42.52s60.93-16.98 77.12-42.52h4.78c9.63 0 18.08-5.14 22.77-12.82 5.367 16.1 8.311 17.19-7.47 22.29zm-194.4-116.4c14.943-4.846 17.441-7.855 18.86-23.66 1.246-13.894 2.239-14.557 15.89-12.73 15.788 2.127 19.284.314 27.26-13.07 7.201-12.074 8.379-12.197 19.75-4.72 13.366 8.829 17.504 8.836 30.88 0 11.327-7.449 12.524-7.396 19.75 4.72 7.978 13.386 11.482 15.199 27.26 13.07 13.666-1.829 14.645-1.153 15.89 12.73 1.41 15.704 3.856 18.822 18.86 23.66 15.822 5.113 12.796 6.312 7.47 22.29-4.69-7.68-13.14-12.82-22.77-12.82h-4.78c-16.19-25.54-44.71-42.52-77.12-42.52s-60.93 16.98-77.12 42.52h-4.78c-9.63 0-18.08 5.14-22.77 12.82-5.366-16.1-8.31-17.19 7.47-22.29zm164.65 106.93c-15.13 20.9-39.73 34.52-67.45 34.52s-52.32-13.62-67.45-34.52zm-149.1-8h-.25c-10.27 0-18.63-8.36-18.63-18.63v-44.2c0-10.27 8.36-18.63 18.63-18.63h.25 163.3.25c10.27 0 18.63 8.36 18.63 18.63v44.2c0 10.27-8.36 18.63-18.63 18.63h-.25c-5.319 0-156.735 0-163.3 0zm14.2-89.46c15.13-20.9 39.73-34.52 67.45-34.52s52.32 13.62 67.45 34.52zm-41.08 34.11v29.24c-15.613-16.796-16.291-11.713 0-29.24zm217.06 29.24v-29.24c15.766 16.961 16.201 11.811 0 29.24z"/><path d="m91.813 121.289c0-8.561.006-9.478-.01-10.41.558.91 4.445 7.117 7.65 12.24 1.729 2.702 7.2 2.06 7.2-1.83v-20.72c0-4.547-6.87-4.523-6.87 0v9.86c-.031-.055-7.366-11.646-7.4-11.7-1.714-2.677-7.44-2.038-7.44 1.84v20.72c0 4.552 6.87 4.543 6.87 0z"/><path d="m119.243 124.729h10.75c4.292 0 4.332-6.56 0-6.56h-6.96v-4.5h5.91c4.299 0 4.321-6.52 0-6.52h-5.91v-3.46h6.44c4.295 0 4.324-6.55 0-6.55h-10.23c-1.79 0-3.26 1.46-3.26 3.26v21.07c0 1.8 1.47 3.26 3.26 3.26z"/><path d="m144.393 122.099c.892 3.455 6.661 3.667 7.64.06l2.83-10.36 2.49 10.26c.889 3.673 6.661 3.521 7.64.13l5.84-20.62c1.253-4.428-5.549-6.347-6.73-1.83l-2.7 10.3-2.45-10.23c-.88-3.636-6.686-3.601-7.63-.08l-2.8 10.57-2.45-10.47c-1.055-4.533-8.038-2.904-6.91 1.65z"/><path d="m165.163 134.269c-1.116-3.273-7.04-2.977-8.05.01l-7.15 21.04c-1.462 4.255 5.314 6.18 6.66 2.08l1.71-5.17h5.49l1.76 5.19c1.351 3.994 8.239 2.239 6.76-2.11zm-4.86 11.58.76-2.25.77 2.25z"/><path d="m51.603 134.269c-1.121-3.287-7.038-2.941-8.05.01-5.387 15.864-2.265 6.696-7.14 21.03-1.457 4.285 5.317 6.16 6.65 2.09 1.597-4.838 1.259-3.818 1.71-5.17h5.49l1.76 5.19c1.394 4.03 8.238 2.237 6.76-2.11zm-4.1 9.33.77 2.25h-1.53z"/><path d="m80.343 146.669c1.83-1.54 2.89-3.77 2.89-6.3 0-2.41-.9-4.54-2.51-5.96-3.191-2.884-8.923-2.728-13.21-2.12-1.6.23-2.81 1.62-2.81 3.25v20.92c0 4.368 7.05 4.37 7.05 0v-6.95h.79c1.46.06 2.25.22 2.85 3.03.56 2.44.95 3.97 1.27 4.95 1.335 3.975 8.002 2.312 6.72-1.96-1.203-4.155-1.229-6.623-3.04-8.86zm-7.48-3.47h-1.11v-4.86c.31-.02.65-.03.99-.03 4.988.058 4.379 4.89.12 4.89z"/><path d="m105.163 146.669c3.944-3.319 3.635-9.38.37-12.26-3.199-2.891-8.934-2.723-13.21-2.12-1.6.23-2.8 1.62-2.8 3.25v20.92c0 4.369 7.04 4.37 7.04 0v-6.95h.8c1.45.06 2.24.22 2.85 3.03.55 2.44.94 3.97 1.27 4.95 1.293 3.938 7.973 2.361 6.72-1.96-1.188-3.974-1.202-6.562-3.04-8.86zm-7.48-3.47h-1.12v-4.86c.32-.02.65-.03.99-.03 5.007.058 4.383 4.89.13 4.89z"/><path d="m114.333 135.329v21.04c0 4.38 7.05 4.386 7.05 0v-21.04c0-4.368-7.05-4.37-7.05 0z"/><path d="m142.953 134.619c-4.011 11.708-3.939 11.486-4.47 13.08-.296-.982-.134-.453-4.11-13-.54-1.722-1.89-2.29-3.71-2.29-2.244 0-3.802 2.179-3.12 4.29l6.87 21.04c1.061 3.256 6.695 3.015 7.73.09l7.53-21.04c1.522-4.346-5.347-6.197-6.72-2.17z"/><path d="m192.373 153.089h-6.81v-17.76c0-4.389-7.04-4.377-7.04 0v21.04c0 1.81 1.47 3.28 3.28 3.28h10.57c4.32 0 4.324-6.56 0-6.56z"/><path d="m213.493 159.789c6.827-2.158 7.797-9.967 3.95-13.96-2.384-2.454-5.537-2.983-7.37-4.12-1.714-1.035-1.417-2.731.45-3.07 1.64-.378 2.97.333 3.97.51 3.933.798 5.573-4.994 1.75-6.36-1.73-.608-3.908-.828-5.14-.74-10.191.323-13.292 12.441-2.51 16.66 1.001.388 2.928 1.024 3.63 1.96.6.763.495 2.295-.82 2.87-.98.422-2.981.518-5.15-.4-3.992-1.717-6.649 4.438-2.56 6.12 2.972 1.219 6.751 1.486 9.8.53z"/><path d="m209.963 122.529v1.62c0 5.258 8 5.297 8 0v-1.62c0-5.288-8-5.284-8 0z"/><path d="m207.443 101.149c1.36 0 2.52 1.49 2.52 3.24v3.14c0 5.26 8 5.313 8 0v-3.14c0-6.02-4.451-10.927-10-11.23-.322-.019-16.238-.01-16.56-.01-5.281 0-5.294 8 0 8z"/></g></svg>