<?xml version="1.0" encoding="iso-8859-1"?>
<!-- Generator: Adobe Illustrator 19.0.0, SVG Export Plug-In . SVG Version: 6.00 Build 0)  -->
<svg version="1.1" id="Layer_1" xmlns="http://www.w3.org/2000/svg" xmlns:xlink="http://www.w3.org/1999/xlink" x="0px" y="0px"
	 viewBox="0 0 508 508" style="enable-background:new 0 0 508 508;" xml:space="preserve">
<circle style="fill:#FFD05B;" cx="254" cy="254" r="254"/>
<path style="fill:#FFFFFF;" d="M304.4,272.4L304.4,272.4c-10.8,56.8-45.2,60.4-50.4,60.4c-5.2,0-39.6-3.6-50.4-60.8l0,0l4-14
	c12.8,16.4,28.8,28,46.4,28s33.6-11.6,46.4-28L304.4,272.4z"/>
<path style="fill:#E6E9EE;" d="M302,264c-12.8,17.6-29.6,30-48,30s-35.2-12.4-48-30l1.6-5.6c12.8,16.4,28.8,28,46.4,28
	s33.6-11.6,46.4-28L302,264z"/>
<path style="fill:#324A5E;" d="M402.8,336c-93.6-32-98.4-64-98.4-64c-10.8,57.2-45.2,60.8-50.4,60.8c-5.2,0-39.6-3.6-50.4-60.8
	c0,0-1.2,30-98.4,64c0,0-24.4,22.8-35.2,93.2c46.4,48.4,111.6,78.8,183.6,78.8c72.4,0,137.6-30.4,183.6-78.8
	C427.2,358.8,402.8,336,402.8,336z"/>
<path style="fill:#FF7058;" d="M355.2,316.4c-8.4-4.4-15.6-8.4-21.6-12l-8.4,118.8H182.8l-8.4-118.8c-6,4-12.8,8-21.6,12
	c6.8,50.4-12.4,164.8-12.4,164.8c34,17.2,72.8,26.8,113.6,26.8s79.2-9.6,113.6-26.8C367.6,481.2,348.4,366.8,355.2,316.4z"/>
<path style="fill:#FFFFFF;" d="M320.4,193.2c2.8,12.8-2.8,34-3.2,36l0,0C304.4,259.6,280.8,286,254,286s-50.4-26.4-63.2-56.8l0,0
	c-0.4-1.6-6-23.2-3.2-36.4h132.8V193.2z"/>
<g>
	<path style="fill:#324A5E;" d="M317.2,229.6c0,0,6.4-22.8,3.2-36.4h12.4C332.8,193.2,329.6,217.2,317.2,229.6z"/>
	<path style="fill:#324A5E;" d="M190.8,229.6c-12.4-12.4-15.6-36.4-15.6-36.4h12.4C184.4,206.8,190.8,229.6,190.8,229.6z"/>
</g>
<g>
	<path style="fill:#F1543F;" d="M206.4,70.4l15.2,96h-53.2c-2-7.2-2.8-14.4-2.8-22.4C165.6,113.2,182,86,206.4,70.4z"/>
	<path style="fill:#F1543F;" d="M342.4,144.4c0,7.6-1.2,15.2-3.2,22.4h-52.8l15.2-96C326,86,342.4,113.2,342.4,144.4z"/>
</g>
<path style="fill:#FF7058;" d="M340,166.4h-53.6l15.2-96c1.6-10-6-19.2-16.4-19.2h-62.4c-10,0-18,9.2-16.4,19.2l15.2,96H168
	c-7.2,0-13.2,6-13.2,13.2s6,13.2,13.2,13.2h172c7.2,0,13.2-6,13.2-13.2S347.2,166.4,340,166.4z"/>
<g>
</g>
<g>
</g>
<g>
</g>
<g>
</g>
<g>
</g>
<g>
</g>
<g>
</g>
<g>
</g>
<g>
</g>
<g>
</g>
<g>
</g>
<g>
</g>
<g>
</g>
<g>
</g>
<g>
</g>
</svg>
