<?xml version="1.0" encoding="iso-8859-1"?>
<!-- Generator: Adobe Illustrator 19.0.0, SVG Export Plug-In . SVG Version: 6.00 Build 0)  -->
<svg version="1.1" id="Layer_1" xmlns="http://www.w3.org/2000/svg" xmlns:xlink="http://www.w3.org/1999/xlink" x="0px" y="0px"
	 viewBox="0 0 508 508" style="enable-background:new 0 0 508 508;" xml:space="preserve">
<circle style="fill:#FFD05B;" cx="254" cy="254" r="254"/>
<path style="fill:#2B3B4E;" d="M262,248l-29.2-23.6v-27.2c0-2-1.6-4-4-4c-2,0-4,1.6-4,4v27.2L195.6,248c-1.2,0.8-1.6,2-1.6,3.2v17.6
	c0,0.8,0.8,1.6,1.6,1.6h7.6v-8H202v-9.2l26.8-21.6l26.8,21.6v9.2h-1.2v8h7.6c0.8,0,1.6-0.8,1.6-1.6v-17.6
	C263.6,250,262.8,248.8,262,248z"/>
<path style="fill:#F9B54C;" d="M56,413.2c46.8,58,118,94.8,198,94.8s151.2-36.8,198-94.8H56z"/>
<path style="fill:#324A5E;" d="M420.8,397.2H201.6c-17.2,0-30.8-14-30.8-30.8l0,0c0-17.2,14-30.8,30.8-30.8h219.2
	c17.2,0,30.8,14,30.8,30.8l0,0C452,383.2,438,397.2,420.8,397.2z"/>
<g>
	<circle style="fill:#2B3B4E;" cx="420.8" cy="366.4" r="14.4"/>
	<circle style="fill:#2B3B4E;" cx="201.6" cy="366.4" r="14.4"/>
	<circle style="fill:#2B3B4E;" cx="256.4" cy="366.4" r="14.4"/>
	<circle style="fill:#2B3B4E;" cx="311.2" cy="366.4" r="14.4"/>
	<circle style="fill:#2B3B4E;" cx="366" cy="366.4" r="14.4"/>
	<rect x="202" y="397.2" style="fill:#2B3B4E;" width="218.8" height="16"/>
</g>
<path style="fill:#FFFFFF;" d="M421.2,335.2h-44.8c-1.6,0-3.2-1.6-3.2-3.2v-44.8c0-1.6,1.6-3.2,3.2-3.2h44.8c1.6,0,3.2,1.6,3.2,3.2
	V332C424.4,334,422.8,335.2,421.2,335.2z"/>
<rect x="391.6" y="284.4" style="fill:#E6E9EE;" width="14.4" height="5.2"/>
<path style="fill:#FFFFFF;" d="M348,335.2h-44.8c-1.6,0-3.2-1.6-3.2-3.2v-44.8c0-1.6,1.6-3.2,3.2-3.2H348c1.6,0,3.2,1.6,3.2,3.2V332
	C351.2,334,350,335.2,348,335.2z"/>
<rect x="318.8" y="284.4" style="fill:#E6E9EE;" width="14.4" height="5.2"/>
<path style="fill:#324A5E;" d="M240,156v40.8c0,3.2-1.2,6-3.2,8s-4.8,3.2-8,3.2c-6.4,0-11.2-5.2-11.2-11.2V156
	c3.6,1.6,7.2,2.8,11.2,2.8S236.4,157.6,240,156z"/>
<path style="fill:#FFFFFF;" d="M251.2,308.4h-44.8c-1.6,0-3.2-1.6-3.2-3.2v-44.8c0-1.6,1.6-3.2,3.2-3.2h44.8c1.6,0,3.2,1.6,3.2,3.2
	v44.8C254.4,307.2,252.8,308.4,251.2,308.4z"/>
<rect x="221.6" y="257.6" style="fill:#E6E9EE;" width="14.4" height="5.2"/>
<g>
	<path style="fill:#324A5E;" d="M126.8,154.8V298c-4-2-8.4-2.8-13.2-2.8c-4.8,0-9.2,1.2-13.2,2.8V154.8c4,2.4,8.4,3.6,13.2,3.6
		S122.8,157.2,126.8,154.8z"/>
	<path style="fill:#324A5E;" d="M202.8,132.4c0,4.8,1.2,9.6,3.6,13.2H136c2.4-4,3.6-8.4,3.6-13.2s-1.2-9.2-3.6-13.2h70.8
		C204,123.2,202.8,127.6,202.8,132.4z"/>
</g>
<path style="fill:#FFFFFF;" d="M145.2,413.2H82v-86.4c0-17.6,14-31.6,31.6-31.6l0,0c17.6,0,31.6,14,31.6,31.6V413.2z"/>
<circle style="fill:#FF7058;" cx="113.6" cy="326.8" r="18.8"/>
<circle style="fill:#FFFFFF;" cx="113.6" cy="132.4" r="26"/>
<circle style="fill:#FF7058;" cx="113.6" cy="132.4" r="16.4"/>
<circle style="fill:#FFFFFF;" cx="228.8" cy="132.4" r="26"/>
<circle style="fill:#FF7058;" cx="228.8" cy="132.4" r="16.4"/>
<g>
</g>
<g>
</g>
<g>
</g>
<g>
</g>
<g>
</g>
<g>
</g>
<g>
</g>
<g>
</g>
<g>
</g>
<g>
</g>
<g>
</g>
<g>
</g>
<g>
</g>
<g>
</g>
<g>
</g>
</svg>
